%TF.GenerationSoftware,KiCad,Pcbnew,6.0.7+dfsg-3*%
%TF.CreationDate,2022-09-21T21:46:23+02:00*%
%TF.ProjectId,Adapter_RCB_F9T,41646170-7465-4725-9f52-43425f463954,1*%
%TF.SameCoordinates,Original*%
%TF.FileFunction,Legend,Top*%
%TF.FilePolarity,Positive*%
%FSLAX46Y46*%
G04 Gerber Fmt 4.6, Leading zero omitted, Abs format (unit mm)*
G04 Created by KiCad (PCBNEW 6.0.7+dfsg-3) date 2022-09-21 21:46:23*
%MOMM*%
%LPD*%
G01*
G04 APERTURE LIST*
%ADD10C,0.175000*%
%ADD11C,0.150000*%
%ADD12C,0.300000*%
%ADD13C,0.120000*%
%ADD14C,0.100000*%
G04 APERTURE END LIST*
D10*
X75937500Y-47250000D02*
G75*
G03*
X75937500Y-47250000I-87500J0D01*
G01*
X80037500Y-64050500D02*
G75*
G03*
X80037500Y-64050500I-87500J0D01*
G01*
D11*
X56859404Y-55600000D02*
X56764166Y-55552380D01*
X56621309Y-55552380D01*
X56478452Y-55600000D01*
X56383214Y-55695238D01*
X56335595Y-55790476D01*
X56287976Y-55980952D01*
X56287976Y-56123809D01*
X56335595Y-56314285D01*
X56383214Y-56409523D01*
X56478452Y-56504761D01*
X56621309Y-56552380D01*
X56716547Y-56552380D01*
X56859404Y-56504761D01*
X56907023Y-56457142D01*
X56907023Y-56123809D01*
X56716547Y-56123809D01*
X57335595Y-56552380D02*
X57335595Y-55552380D01*
X57907023Y-56552380D01*
X57907023Y-55552380D01*
X58383214Y-56552380D02*
X58383214Y-55552380D01*
X58621309Y-55552380D01*
X58764166Y-55600000D01*
X58859404Y-55695238D01*
X58907023Y-55790476D01*
X58954642Y-55980952D01*
X58954642Y-56123809D01*
X58907023Y-56314285D01*
X58859404Y-56409523D01*
X58764166Y-56504761D01*
X58621309Y-56552380D01*
X58383214Y-56552380D01*
D12*
X57178571Y-92428571D02*
X56464285Y-92928571D01*
X57178571Y-93285714D02*
X55678571Y-93285714D01*
X55678571Y-92714285D01*
X55750000Y-92571428D01*
X55821428Y-92500000D01*
X55964285Y-92428571D01*
X56178571Y-92428571D01*
X56321428Y-92500000D01*
X56392857Y-92571428D01*
X56464285Y-92714285D01*
X56464285Y-93285714D01*
X57035714Y-90928571D02*
X57107142Y-91000000D01*
X57178571Y-91214285D01*
X57178571Y-91357142D01*
X57107142Y-91571428D01*
X56964285Y-91714285D01*
X56821428Y-91785714D01*
X56535714Y-91857142D01*
X56321428Y-91857142D01*
X56035714Y-91785714D01*
X55892857Y-91714285D01*
X55750000Y-91571428D01*
X55678571Y-91357142D01*
X55678571Y-91214285D01*
X55750000Y-91000000D01*
X55821428Y-90928571D01*
X56392857Y-89785714D02*
X56464285Y-89571428D01*
X56535714Y-89500000D01*
X56678571Y-89428571D01*
X56892857Y-89428571D01*
X57035714Y-89500000D01*
X57107142Y-89571428D01*
X57178571Y-89714285D01*
X57178571Y-90285714D01*
X55678571Y-90285714D01*
X55678571Y-89785714D01*
X55750000Y-89642857D01*
X55821428Y-89571428D01*
X55964285Y-89500000D01*
X56107142Y-89500000D01*
X56250000Y-89571428D01*
X56321428Y-89642857D01*
X56392857Y-89785714D01*
X56392857Y-90285714D01*
X56607142Y-88785714D02*
X56607142Y-87642857D01*
X56392857Y-86428571D02*
X56392857Y-86928571D01*
X57178571Y-86928571D02*
X55678571Y-86928571D01*
X55678571Y-86214285D01*
X57178571Y-85571428D02*
X57178571Y-85285714D01*
X57107142Y-85142857D01*
X57035714Y-85071428D01*
X56821428Y-84928571D01*
X56535714Y-84857142D01*
X55964285Y-84857142D01*
X55821428Y-84928571D01*
X55750000Y-85000000D01*
X55678571Y-85142857D01*
X55678571Y-85428571D01*
X55750000Y-85571428D01*
X55821428Y-85642857D01*
X55964285Y-85714285D01*
X56321428Y-85714285D01*
X56464285Y-85642857D01*
X56535714Y-85571428D01*
X56607142Y-85428571D01*
X56607142Y-85142857D01*
X56535714Y-85000000D01*
X56464285Y-84928571D01*
X56321428Y-84857142D01*
X55678571Y-84428571D02*
X55678571Y-83571428D01*
X57178571Y-84000000D02*
X55678571Y-84000000D01*
X56750000Y-82000000D02*
X56750000Y-81285714D01*
X57178571Y-82142857D02*
X55678571Y-81642857D01*
X57178571Y-81142857D01*
X57178571Y-80000000D02*
X55678571Y-80000000D01*
X57107142Y-80000000D02*
X57178571Y-80142857D01*
X57178571Y-80428571D01*
X57107142Y-80571428D01*
X57035714Y-80642857D01*
X56892857Y-80714285D01*
X56464285Y-80714285D01*
X56321428Y-80642857D01*
X56250000Y-80571428D01*
X56178571Y-80428571D01*
X56178571Y-80142857D01*
X56250000Y-80000000D01*
X57178571Y-78642857D02*
X56392857Y-78642857D01*
X56250000Y-78714285D01*
X56178571Y-78857142D01*
X56178571Y-79142857D01*
X56250000Y-79285714D01*
X57107142Y-78642857D02*
X57178571Y-78785714D01*
X57178571Y-79142857D01*
X57107142Y-79285714D01*
X56964285Y-79357142D01*
X56821428Y-79357142D01*
X56678571Y-79285714D01*
X56607142Y-79142857D01*
X56607142Y-78785714D01*
X56535714Y-78642857D01*
X56178571Y-77928571D02*
X57678571Y-77928571D01*
X56250000Y-77928571D02*
X56178571Y-77785714D01*
X56178571Y-77500000D01*
X56250000Y-77357142D01*
X56321428Y-77285714D01*
X56464285Y-77214285D01*
X56892857Y-77214285D01*
X57035714Y-77285714D01*
X57107142Y-77357142D01*
X57178571Y-77500000D01*
X57178571Y-77785714D01*
X57107142Y-77928571D01*
X56178571Y-76785714D02*
X56178571Y-76214285D01*
X55678571Y-76571428D02*
X56964285Y-76571428D01*
X57107142Y-76500000D01*
X57178571Y-76357142D01*
X57178571Y-76214285D01*
X57107142Y-75142857D02*
X57178571Y-75285714D01*
X57178571Y-75571428D01*
X57107142Y-75714285D01*
X56964285Y-75785714D01*
X56392857Y-75785714D01*
X56250000Y-75714285D01*
X56178571Y-75571428D01*
X56178571Y-75285714D01*
X56250000Y-75142857D01*
X56392857Y-75071428D01*
X56535714Y-75071428D01*
X56678571Y-75785714D01*
X57178571Y-74428571D02*
X56178571Y-74428571D01*
X56464285Y-74428571D02*
X56321428Y-74357142D01*
X56250000Y-74285714D01*
X56178571Y-74142857D01*
X56178571Y-74000000D01*
X57178571Y-72357142D02*
X56178571Y-72357142D01*
X56464285Y-72357142D02*
X56321428Y-72285714D01*
X56250000Y-72214285D01*
X56178571Y-72071428D01*
X56178571Y-71928571D01*
X57178571Y-70642857D02*
X57178571Y-71500000D01*
X57178571Y-71071428D02*
X55678571Y-71071428D01*
X55892857Y-71214285D01*
X56035714Y-71357142D01*
X56107142Y-71500000D01*
D11*
X58452380Y-86619047D02*
X59166666Y-86619047D01*
X59309523Y-86666666D01*
X59404761Y-86761904D01*
X59452380Y-86904761D01*
X59452380Y-87000000D01*
X59452380Y-85666666D02*
X59452380Y-86142857D01*
X58452380Y-86142857D01*
X59357142Y-84761904D02*
X59404761Y-84809523D01*
X59452380Y-84952380D01*
X59452380Y-85047619D01*
X59404761Y-85190476D01*
X59309523Y-85285714D01*
X59214285Y-85333333D01*
X59023809Y-85380952D01*
X58880952Y-85380952D01*
X58690476Y-85333333D01*
X58595238Y-85285714D01*
X58500000Y-85190476D01*
X58452380Y-85047619D01*
X58452380Y-84952380D01*
X58500000Y-84809523D01*
X58547619Y-84761904D01*
X58452380Y-84047619D02*
X59166666Y-84047619D01*
X59309523Y-84095238D01*
X59404761Y-84190476D01*
X59452380Y-84333333D01*
X59452380Y-84428571D01*
X59452380Y-83095238D02*
X59452380Y-83571428D01*
X58452380Y-83571428D01*
X59357142Y-82190476D02*
X59404761Y-82238095D01*
X59452380Y-82380952D01*
X59452380Y-82476190D01*
X59404761Y-82619047D01*
X59309523Y-82714285D01*
X59214285Y-82761904D01*
X59023809Y-82809523D01*
X58880952Y-82809523D01*
X58690476Y-82761904D01*
X58595238Y-82714285D01*
X58500000Y-82619047D01*
X58452380Y-82476190D01*
X58452380Y-82380952D01*
X58500000Y-82238095D01*
X58547619Y-82190476D01*
X58452380Y-81476190D02*
X59166666Y-81476190D01*
X59309523Y-81523809D01*
X59404761Y-81619047D01*
X59452380Y-81761904D01*
X59452380Y-81857142D01*
X59452380Y-80523809D02*
X59452380Y-81000000D01*
X58452380Y-81000000D01*
X59357142Y-79619047D02*
X59404761Y-79666666D01*
X59452380Y-79809523D01*
X59452380Y-79904761D01*
X59404761Y-80047619D01*
X59309523Y-80142857D01*
X59214285Y-80190476D01*
X59023809Y-80238095D01*
X58880952Y-80238095D01*
X58690476Y-80190476D01*
X58595238Y-80142857D01*
X58500000Y-80047619D01*
X58452380Y-79904761D01*
X58452380Y-79809523D01*
X58500000Y-79666666D01*
X58547619Y-79619047D01*
X58452380Y-78904761D02*
X59166666Y-78904761D01*
X59309523Y-78952380D01*
X59404761Y-79047619D01*
X59452380Y-79190476D01*
X59452380Y-79285714D01*
X59452380Y-77952380D02*
X59452380Y-78428571D01*
X58452380Y-78428571D01*
X59357142Y-77047619D02*
X59404761Y-77095238D01*
X59452380Y-77238095D01*
X59452380Y-77333333D01*
X59404761Y-77476190D01*
X59309523Y-77571428D01*
X59214285Y-77619047D01*
X59023809Y-77666666D01*
X58880952Y-77666666D01*
X58690476Y-77619047D01*
X58595238Y-77571428D01*
X58500000Y-77476190D01*
X58452380Y-77333333D01*
X58452380Y-77238095D01*
X58500000Y-77095238D01*
X58547619Y-77047619D01*
X56335595Y-53571428D02*
X57097500Y-53571428D01*
X56716547Y-53952380D02*
X56716547Y-53190476D01*
X58049880Y-52952380D02*
X57573690Y-52952380D01*
X57526071Y-53428571D01*
X57573690Y-53380952D01*
X57668928Y-53333333D01*
X57907023Y-53333333D01*
X58002261Y-53380952D01*
X58049880Y-53428571D01*
X58097500Y-53523809D01*
X58097500Y-53761904D01*
X58049880Y-53857142D01*
X58002261Y-53904761D01*
X57907023Y-53952380D01*
X57668928Y-53952380D01*
X57573690Y-53904761D01*
X57526071Y-53857142D01*
X58383214Y-52952380D02*
X58716547Y-53952380D01*
X59049880Y-52952380D01*
D12*
X72178571Y-119092857D02*
X72178571Y-118235714D01*
X73678571Y-118664285D02*
X72178571Y-118664285D01*
X73678571Y-117735714D02*
X72178571Y-117735714D01*
X72178571Y-117164285D01*
X72250000Y-117021428D01*
X72321428Y-116950000D01*
X72464285Y-116878571D01*
X72678571Y-116878571D01*
X72821428Y-116950000D01*
X72892857Y-117021428D01*
X72964285Y-117164285D01*
X72964285Y-117735714D01*
X72321428Y-116307142D02*
X72250000Y-116235714D01*
X72178571Y-116092857D01*
X72178571Y-115735714D01*
X72250000Y-115592857D01*
X72321428Y-115521428D01*
X72464285Y-115450000D01*
X72607142Y-115450000D01*
X72821428Y-115521428D01*
X73678571Y-116378571D01*
X73678571Y-115450000D01*
D11*
X56192738Y-50452380D02*
X56526071Y-51452380D01*
X56859404Y-50452380D01*
X57526071Y-50928571D02*
X57668928Y-50976190D01*
X57716547Y-51023809D01*
X57764166Y-51119047D01*
X57764166Y-51261904D01*
X57716547Y-51357142D01*
X57668928Y-51404761D01*
X57573690Y-51452380D01*
X57192738Y-51452380D01*
X57192738Y-50452380D01*
X57526071Y-50452380D01*
X57621309Y-50500000D01*
X57668928Y-50547619D01*
X57716547Y-50642857D01*
X57716547Y-50738095D01*
X57668928Y-50833333D01*
X57621309Y-50880952D01*
X57526071Y-50928571D01*
X57192738Y-50928571D01*
X58192738Y-50452380D02*
X58192738Y-51261904D01*
X58240357Y-51357142D01*
X58287976Y-51404761D01*
X58383214Y-51452380D01*
X58573690Y-51452380D01*
X58668928Y-51404761D01*
X58716547Y-51357142D01*
X58764166Y-51261904D01*
X58764166Y-50452380D01*
X59192738Y-51404761D02*
X59335595Y-51452380D01*
X59573690Y-51452380D01*
X59668928Y-51404761D01*
X59716547Y-51357142D01*
X59764166Y-51261904D01*
X59764166Y-51166666D01*
X59716547Y-51071428D01*
X59668928Y-51023809D01*
X59573690Y-50976190D01*
X59383214Y-50928571D01*
X59287976Y-50880952D01*
X59240357Y-50833333D01*
X59192738Y-50738095D01*
X59192738Y-50642857D01*
X59240357Y-50547619D01*
X59287976Y-50500000D01*
X59383214Y-50452380D01*
X59621309Y-50452380D01*
X59764166Y-50500000D01*
X56335595Y-58671428D02*
X57097500Y-58671428D01*
X58049880Y-58052380D02*
X57573690Y-58052380D01*
X57526071Y-58528571D01*
X57573690Y-58480952D01*
X57668928Y-58433333D01*
X57907023Y-58433333D01*
X58002261Y-58480952D01*
X58049880Y-58528571D01*
X58097500Y-58623809D01*
X58097500Y-58861904D01*
X58049880Y-58957142D01*
X58002261Y-59004761D01*
X57907023Y-59052380D01*
X57668928Y-59052380D01*
X57573690Y-59004761D01*
X57526071Y-58957142D01*
X58383214Y-58052380D02*
X58716547Y-59052380D01*
X59049880Y-58052380D01*
D12*
X66378571Y-119092857D02*
X66378571Y-118235714D01*
X67878571Y-118664285D02*
X66378571Y-118664285D01*
X67878571Y-117735714D02*
X66378571Y-117735714D01*
X66378571Y-117164285D01*
X66450000Y-117021428D01*
X66521428Y-116950000D01*
X66664285Y-116878571D01*
X66878571Y-116878571D01*
X67021428Y-116950000D01*
X67092857Y-117021428D01*
X67164285Y-117164285D01*
X67164285Y-117735714D01*
X67878571Y-115450000D02*
X67878571Y-116307142D01*
X67878571Y-115878571D02*
X66378571Y-115878571D01*
X66592857Y-116021428D01*
X66735714Y-116164285D01*
X66807142Y-116307142D01*
D11*
%TO.C,R41*%
X79557142Y-93052380D02*
X79223809Y-92576190D01*
X78985714Y-93052380D02*
X78985714Y-92052380D01*
X79366666Y-92052380D01*
X79461904Y-92100000D01*
X79509523Y-92147619D01*
X79557142Y-92242857D01*
X79557142Y-92385714D01*
X79509523Y-92480952D01*
X79461904Y-92528571D01*
X79366666Y-92576190D01*
X78985714Y-92576190D01*
X80414285Y-92385714D02*
X80414285Y-93052380D01*
X80176190Y-92004761D02*
X79938095Y-92719047D01*
X80557142Y-92719047D01*
X81461904Y-93052380D02*
X80890476Y-93052380D01*
X81176190Y-93052380D02*
X81176190Y-92052380D01*
X81080952Y-92195238D01*
X80985714Y-92290476D01*
X80890476Y-92338095D01*
%TO.C,D1*%
X74952380Y-45938095D02*
X73952380Y-45938095D01*
X73952380Y-45700000D01*
X74000000Y-45557142D01*
X74095238Y-45461904D01*
X74190476Y-45414285D01*
X74380952Y-45366666D01*
X74523809Y-45366666D01*
X74714285Y-45414285D01*
X74809523Y-45461904D01*
X74904761Y-45557142D01*
X74952380Y-45700000D01*
X74952380Y-45938095D01*
X74952380Y-44414285D02*
X74952380Y-44985714D01*
X74952380Y-44700000D02*
X73952380Y-44700000D01*
X74095238Y-44795238D01*
X74190476Y-44890476D01*
X74238095Y-44985714D01*
%TO.C,C33*%
X84197142Y-60483357D02*
X84244761Y-60530976D01*
X84292380Y-60673833D01*
X84292380Y-60769071D01*
X84244761Y-60911928D01*
X84149523Y-61007166D01*
X84054285Y-61054785D01*
X83863809Y-61102404D01*
X83720952Y-61102404D01*
X83530476Y-61054785D01*
X83435238Y-61007166D01*
X83340000Y-60911928D01*
X83292380Y-60769071D01*
X83292380Y-60673833D01*
X83340000Y-60530976D01*
X83387619Y-60483357D01*
X83292380Y-60150023D02*
X83292380Y-59530976D01*
X83673333Y-59864309D01*
X83673333Y-59721452D01*
X83720952Y-59626214D01*
X83768571Y-59578595D01*
X83863809Y-59530976D01*
X84101904Y-59530976D01*
X84197142Y-59578595D01*
X84244761Y-59626214D01*
X84292380Y-59721452D01*
X84292380Y-60007166D01*
X84244761Y-60102404D01*
X84197142Y-60150023D01*
X83292380Y-59197642D02*
X83292380Y-58578595D01*
X83673333Y-58911928D01*
X83673333Y-58769071D01*
X83720952Y-58673833D01*
X83768571Y-58626214D01*
X83863809Y-58578595D01*
X84101904Y-58578595D01*
X84197142Y-58626214D01*
X84244761Y-58673833D01*
X84292380Y-58769071D01*
X84292380Y-59054785D01*
X84244761Y-59150023D01*
X84197142Y-59197642D01*
%TO.C,C63*%
X73157142Y-110757142D02*
X73109523Y-110804761D01*
X72966666Y-110852380D01*
X72871428Y-110852380D01*
X72728571Y-110804761D01*
X72633333Y-110709523D01*
X72585714Y-110614285D01*
X72538095Y-110423809D01*
X72538095Y-110280952D01*
X72585714Y-110090476D01*
X72633333Y-109995238D01*
X72728571Y-109900000D01*
X72871428Y-109852380D01*
X72966666Y-109852380D01*
X73109523Y-109900000D01*
X73157142Y-109947619D01*
X74014285Y-109852380D02*
X73823809Y-109852380D01*
X73728571Y-109900000D01*
X73680952Y-109947619D01*
X73585714Y-110090476D01*
X73538095Y-110280952D01*
X73538095Y-110661904D01*
X73585714Y-110757142D01*
X73633333Y-110804761D01*
X73728571Y-110852380D01*
X73919047Y-110852380D01*
X74014285Y-110804761D01*
X74061904Y-110757142D01*
X74109523Y-110661904D01*
X74109523Y-110423809D01*
X74061904Y-110328571D01*
X74014285Y-110280952D01*
X73919047Y-110233333D01*
X73728571Y-110233333D01*
X73633333Y-110280952D01*
X73585714Y-110328571D01*
X73538095Y-110423809D01*
X74442857Y-109852380D02*
X75061904Y-109852380D01*
X74728571Y-110233333D01*
X74871428Y-110233333D01*
X74966666Y-110280952D01*
X75014285Y-110328571D01*
X75061904Y-110423809D01*
X75061904Y-110661904D01*
X75014285Y-110757142D01*
X74966666Y-110804761D01*
X74871428Y-110852380D01*
X74585714Y-110852380D01*
X74490476Y-110804761D01*
X74442857Y-110757142D01*
%TO.C,C11*%
X79307142Y-77842857D02*
X79354761Y-77890476D01*
X79402380Y-78033333D01*
X79402380Y-78128571D01*
X79354761Y-78271428D01*
X79259523Y-78366666D01*
X79164285Y-78414285D01*
X78973809Y-78461904D01*
X78830952Y-78461904D01*
X78640476Y-78414285D01*
X78545238Y-78366666D01*
X78450000Y-78271428D01*
X78402380Y-78128571D01*
X78402380Y-78033333D01*
X78450000Y-77890476D01*
X78497619Y-77842857D01*
X79402380Y-76890476D02*
X79402380Y-77461904D01*
X79402380Y-77176190D02*
X78402380Y-77176190D01*
X78545238Y-77271428D01*
X78640476Y-77366666D01*
X78688095Y-77461904D01*
X79402380Y-75938095D02*
X79402380Y-76509523D01*
X79402380Y-76223809D02*
X78402380Y-76223809D01*
X78545238Y-76319047D01*
X78640476Y-76414285D01*
X78688095Y-76509523D01*
%TO.C,D51*%
X55085714Y-113452380D02*
X55085714Y-112452380D01*
X55323809Y-112452380D01*
X55466666Y-112500000D01*
X55561904Y-112595238D01*
X55609523Y-112690476D01*
X55657142Y-112880952D01*
X55657142Y-113023809D01*
X55609523Y-113214285D01*
X55561904Y-113309523D01*
X55466666Y-113404761D01*
X55323809Y-113452380D01*
X55085714Y-113452380D01*
X56561904Y-112452380D02*
X56085714Y-112452380D01*
X56038095Y-112928571D01*
X56085714Y-112880952D01*
X56180952Y-112833333D01*
X56419047Y-112833333D01*
X56514285Y-112880952D01*
X56561904Y-112928571D01*
X56609523Y-113023809D01*
X56609523Y-113261904D01*
X56561904Y-113357142D01*
X56514285Y-113404761D01*
X56419047Y-113452380D01*
X56180952Y-113452380D01*
X56085714Y-113404761D01*
X56038095Y-113357142D01*
X57561904Y-113452380D02*
X56990476Y-113452380D01*
X57276190Y-113452380D02*
X57276190Y-112452380D01*
X57180952Y-112595238D01*
X57085714Y-112690476D01*
X56990476Y-112738095D01*
%TO.C,C24*%
X66107142Y-78267857D02*
X66154761Y-78315476D01*
X66202380Y-78458333D01*
X66202380Y-78553571D01*
X66154761Y-78696428D01*
X66059523Y-78791666D01*
X65964285Y-78839285D01*
X65773809Y-78886904D01*
X65630952Y-78886904D01*
X65440476Y-78839285D01*
X65345238Y-78791666D01*
X65250000Y-78696428D01*
X65202380Y-78553571D01*
X65202380Y-78458333D01*
X65250000Y-78315476D01*
X65297619Y-78267857D01*
X65297619Y-77886904D02*
X65250000Y-77839285D01*
X65202380Y-77744047D01*
X65202380Y-77505952D01*
X65250000Y-77410714D01*
X65297619Y-77363095D01*
X65392857Y-77315476D01*
X65488095Y-77315476D01*
X65630952Y-77363095D01*
X66202380Y-77934523D01*
X66202380Y-77315476D01*
X65535714Y-76458333D02*
X66202380Y-76458333D01*
X65154761Y-76696428D02*
X65869047Y-76934523D01*
X65869047Y-76315476D01*
%TO.C,R21*%
X69257142Y-69352380D02*
X68923809Y-68876190D01*
X68685714Y-69352380D02*
X68685714Y-68352380D01*
X69066666Y-68352380D01*
X69161904Y-68400000D01*
X69209523Y-68447619D01*
X69257142Y-68542857D01*
X69257142Y-68685714D01*
X69209523Y-68780952D01*
X69161904Y-68828571D01*
X69066666Y-68876190D01*
X68685714Y-68876190D01*
X69638095Y-68447619D02*
X69685714Y-68400000D01*
X69780952Y-68352380D01*
X70019047Y-68352380D01*
X70114285Y-68400000D01*
X70161904Y-68447619D01*
X70209523Y-68542857D01*
X70209523Y-68638095D01*
X70161904Y-68780952D01*
X69590476Y-69352380D01*
X70209523Y-69352380D01*
X71161904Y-69352380D02*
X70590476Y-69352380D01*
X70876190Y-69352380D02*
X70876190Y-68352380D01*
X70780952Y-68495238D01*
X70685714Y-68590476D01*
X70590476Y-68638095D01*
%TO.C,C42*%
X79557142Y-94757142D02*
X79509523Y-94804761D01*
X79366666Y-94852380D01*
X79271428Y-94852380D01*
X79128571Y-94804761D01*
X79033333Y-94709523D01*
X78985714Y-94614285D01*
X78938095Y-94423809D01*
X78938095Y-94280952D01*
X78985714Y-94090476D01*
X79033333Y-93995238D01*
X79128571Y-93900000D01*
X79271428Y-93852380D01*
X79366666Y-93852380D01*
X79509523Y-93900000D01*
X79557142Y-93947619D01*
X80414285Y-94185714D02*
X80414285Y-94852380D01*
X80176190Y-93804761D02*
X79938095Y-94519047D01*
X80557142Y-94519047D01*
X80890476Y-93947619D02*
X80938095Y-93900000D01*
X81033333Y-93852380D01*
X81271428Y-93852380D01*
X81366666Y-93900000D01*
X81414285Y-93947619D01*
X81461904Y-94042857D01*
X81461904Y-94138095D01*
X81414285Y-94280952D01*
X80842857Y-94852380D01*
X81461904Y-94852380D01*
%TO.C,R22*%
X69257142Y-70602380D02*
X68923809Y-70126190D01*
X68685714Y-70602380D02*
X68685714Y-69602380D01*
X69066666Y-69602380D01*
X69161904Y-69650000D01*
X69209523Y-69697619D01*
X69257142Y-69792857D01*
X69257142Y-69935714D01*
X69209523Y-70030952D01*
X69161904Y-70078571D01*
X69066666Y-70126190D01*
X68685714Y-70126190D01*
X69638095Y-69697619D02*
X69685714Y-69650000D01*
X69780952Y-69602380D01*
X70019047Y-69602380D01*
X70114285Y-69650000D01*
X70161904Y-69697619D01*
X70209523Y-69792857D01*
X70209523Y-69888095D01*
X70161904Y-70030952D01*
X69590476Y-70602380D01*
X70209523Y-70602380D01*
X70590476Y-69697619D02*
X70638095Y-69650000D01*
X70733333Y-69602380D01*
X70971428Y-69602380D01*
X71066666Y-69650000D01*
X71114285Y-69697619D01*
X71161904Y-69792857D01*
X71161904Y-69888095D01*
X71114285Y-70030952D01*
X70542857Y-70602380D01*
X71161904Y-70602380D01*
%TO.C,FB31*%
X74830476Y-55469071D02*
X74497142Y-55469071D01*
X74497142Y-55992880D02*
X74497142Y-54992880D01*
X74973333Y-54992880D01*
X75687619Y-55469071D02*
X75830476Y-55516690D01*
X75878095Y-55564309D01*
X75925714Y-55659547D01*
X75925714Y-55802404D01*
X75878095Y-55897642D01*
X75830476Y-55945261D01*
X75735238Y-55992880D01*
X75354285Y-55992880D01*
X75354285Y-54992880D01*
X75687619Y-54992880D01*
X75782857Y-55040500D01*
X75830476Y-55088119D01*
X75878095Y-55183357D01*
X75878095Y-55278595D01*
X75830476Y-55373833D01*
X75782857Y-55421452D01*
X75687619Y-55469071D01*
X75354285Y-55469071D01*
X76259047Y-54992880D02*
X76878095Y-54992880D01*
X76544761Y-55373833D01*
X76687619Y-55373833D01*
X76782857Y-55421452D01*
X76830476Y-55469071D01*
X76878095Y-55564309D01*
X76878095Y-55802404D01*
X76830476Y-55897642D01*
X76782857Y-55945261D01*
X76687619Y-55992880D01*
X76401904Y-55992880D01*
X76306666Y-55945261D01*
X76259047Y-55897642D01*
X77830476Y-55992880D02*
X77259047Y-55992880D01*
X77544761Y-55992880D02*
X77544761Y-54992880D01*
X77449523Y-55135738D01*
X77354285Y-55230976D01*
X77259047Y-55278595D01*
%TO.C,C64*%
X73157142Y-111957142D02*
X73109523Y-112004761D01*
X72966666Y-112052380D01*
X72871428Y-112052380D01*
X72728571Y-112004761D01*
X72633333Y-111909523D01*
X72585714Y-111814285D01*
X72538095Y-111623809D01*
X72538095Y-111480952D01*
X72585714Y-111290476D01*
X72633333Y-111195238D01*
X72728571Y-111100000D01*
X72871428Y-111052380D01*
X72966666Y-111052380D01*
X73109523Y-111100000D01*
X73157142Y-111147619D01*
X74014285Y-111052380D02*
X73823809Y-111052380D01*
X73728571Y-111100000D01*
X73680952Y-111147619D01*
X73585714Y-111290476D01*
X73538095Y-111480952D01*
X73538095Y-111861904D01*
X73585714Y-111957142D01*
X73633333Y-112004761D01*
X73728571Y-112052380D01*
X73919047Y-112052380D01*
X74014285Y-112004761D01*
X74061904Y-111957142D01*
X74109523Y-111861904D01*
X74109523Y-111623809D01*
X74061904Y-111528571D01*
X74014285Y-111480952D01*
X73919047Y-111433333D01*
X73728571Y-111433333D01*
X73633333Y-111480952D01*
X73585714Y-111528571D01*
X73538095Y-111623809D01*
X74966666Y-111385714D02*
X74966666Y-112052380D01*
X74728571Y-111004761D02*
X74490476Y-111719047D01*
X75109523Y-111719047D01*
%TO.C,FB11*%
X75678571Y-73509523D02*
X75678571Y-73842857D01*
X76202380Y-73842857D02*
X75202380Y-73842857D01*
X75202380Y-73366666D01*
X75678571Y-72652380D02*
X75726190Y-72509523D01*
X75773809Y-72461904D01*
X75869047Y-72414285D01*
X76011904Y-72414285D01*
X76107142Y-72461904D01*
X76154761Y-72509523D01*
X76202380Y-72604761D01*
X76202380Y-72985714D01*
X75202380Y-72985714D01*
X75202380Y-72652380D01*
X75250000Y-72557142D01*
X75297619Y-72509523D01*
X75392857Y-72461904D01*
X75488095Y-72461904D01*
X75583333Y-72509523D01*
X75630952Y-72557142D01*
X75678571Y-72652380D01*
X75678571Y-72985714D01*
X76202380Y-71461904D02*
X76202380Y-72033333D01*
X76202380Y-71747619D02*
X75202380Y-71747619D01*
X75345238Y-71842857D01*
X75440476Y-71938095D01*
X75488095Y-72033333D01*
X76202380Y-70509523D02*
X76202380Y-71080952D01*
X76202380Y-70795238D02*
X75202380Y-70795238D01*
X75345238Y-70890476D01*
X75440476Y-70985714D01*
X75488095Y-71080952D01*
%TO.C,U21*%
X61852380Y-72738095D02*
X62661904Y-72738095D01*
X62757142Y-72690476D01*
X62804761Y-72642857D01*
X62852380Y-72547619D01*
X62852380Y-72357142D01*
X62804761Y-72261904D01*
X62757142Y-72214285D01*
X62661904Y-72166666D01*
X61852380Y-72166666D01*
X61947619Y-71738095D02*
X61900000Y-71690476D01*
X61852380Y-71595238D01*
X61852380Y-71357142D01*
X61900000Y-71261904D01*
X61947619Y-71214285D01*
X62042857Y-71166666D01*
X62138095Y-71166666D01*
X62280952Y-71214285D01*
X62852380Y-71785714D01*
X62852380Y-71166666D01*
X62852380Y-70214285D02*
X62852380Y-70785714D01*
X62852380Y-70500000D02*
X61852380Y-70500000D01*
X61995238Y-70595238D01*
X62090476Y-70690476D01*
X62138095Y-70785714D01*
%TO.C,C31*%
X78897142Y-57397642D02*
X78849523Y-57445261D01*
X78706666Y-57492880D01*
X78611428Y-57492880D01*
X78468571Y-57445261D01*
X78373333Y-57350023D01*
X78325714Y-57254785D01*
X78278095Y-57064309D01*
X78278095Y-56921452D01*
X78325714Y-56730976D01*
X78373333Y-56635738D01*
X78468571Y-56540500D01*
X78611428Y-56492880D01*
X78706666Y-56492880D01*
X78849523Y-56540500D01*
X78897142Y-56588119D01*
X79230476Y-56492880D02*
X79849523Y-56492880D01*
X79516190Y-56873833D01*
X79659047Y-56873833D01*
X79754285Y-56921452D01*
X79801904Y-56969071D01*
X79849523Y-57064309D01*
X79849523Y-57302404D01*
X79801904Y-57397642D01*
X79754285Y-57445261D01*
X79659047Y-57492880D01*
X79373333Y-57492880D01*
X79278095Y-57445261D01*
X79230476Y-57397642D01*
X80801904Y-57492880D02*
X80230476Y-57492880D01*
X80516190Y-57492880D02*
X80516190Y-56492880D01*
X80420952Y-56635738D01*
X80325714Y-56730976D01*
X80230476Y-56778595D01*
%TO.C,C41*%
X79357142Y-101957142D02*
X79309523Y-102004761D01*
X79166666Y-102052380D01*
X79071428Y-102052380D01*
X78928571Y-102004761D01*
X78833333Y-101909523D01*
X78785714Y-101814285D01*
X78738095Y-101623809D01*
X78738095Y-101480952D01*
X78785714Y-101290476D01*
X78833333Y-101195238D01*
X78928571Y-101100000D01*
X79071428Y-101052380D01*
X79166666Y-101052380D01*
X79309523Y-101100000D01*
X79357142Y-101147619D01*
X80214285Y-101385714D02*
X80214285Y-102052380D01*
X79976190Y-101004761D02*
X79738095Y-101719047D01*
X80357142Y-101719047D01*
X81261904Y-102052380D02*
X80690476Y-102052380D01*
X80976190Y-102052380D02*
X80976190Y-101052380D01*
X80880952Y-101195238D01*
X80785714Y-101290476D01*
X80690476Y-101338095D01*
%TO.C,U31*%
X71902380Y-63788595D02*
X72711904Y-63788595D01*
X72807142Y-63740976D01*
X72854761Y-63693357D01*
X72902380Y-63598119D01*
X72902380Y-63407642D01*
X72854761Y-63312404D01*
X72807142Y-63264785D01*
X72711904Y-63217166D01*
X71902380Y-63217166D01*
X71902380Y-62836214D02*
X71902380Y-62217166D01*
X72283333Y-62550500D01*
X72283333Y-62407642D01*
X72330952Y-62312404D01*
X72378571Y-62264785D01*
X72473809Y-62217166D01*
X72711904Y-62217166D01*
X72807142Y-62264785D01*
X72854761Y-62312404D01*
X72902380Y-62407642D01*
X72902380Y-62693357D01*
X72854761Y-62788595D01*
X72807142Y-62836214D01*
X72902380Y-61264785D02*
X72902380Y-61836214D01*
X72902380Y-61550500D02*
X71902380Y-61550500D01*
X72045238Y-61645738D01*
X72140476Y-61740976D01*
X72188095Y-61836214D01*
%TO.C,FB21*%
X59078571Y-74284523D02*
X59078571Y-74617857D01*
X59602380Y-74617857D02*
X58602380Y-74617857D01*
X58602380Y-74141666D01*
X59078571Y-73427380D02*
X59126190Y-73284523D01*
X59173809Y-73236904D01*
X59269047Y-73189285D01*
X59411904Y-73189285D01*
X59507142Y-73236904D01*
X59554761Y-73284523D01*
X59602380Y-73379761D01*
X59602380Y-73760714D01*
X58602380Y-73760714D01*
X58602380Y-73427380D01*
X58650000Y-73332142D01*
X58697619Y-73284523D01*
X58792857Y-73236904D01*
X58888095Y-73236904D01*
X58983333Y-73284523D01*
X59030952Y-73332142D01*
X59078571Y-73427380D01*
X59078571Y-73760714D01*
X58697619Y-72808333D02*
X58650000Y-72760714D01*
X58602380Y-72665476D01*
X58602380Y-72427380D01*
X58650000Y-72332142D01*
X58697619Y-72284523D01*
X58792857Y-72236904D01*
X58888095Y-72236904D01*
X59030952Y-72284523D01*
X59602380Y-72855952D01*
X59602380Y-72236904D01*
X59602380Y-71284523D02*
X59602380Y-71855952D01*
X59602380Y-71570238D02*
X58602380Y-71570238D01*
X58745238Y-71665476D01*
X58840476Y-71760714D01*
X58888095Y-71855952D01*
%TO.C,C54*%
X70757142Y-85657142D02*
X70709523Y-85704761D01*
X70566666Y-85752380D01*
X70471428Y-85752380D01*
X70328571Y-85704761D01*
X70233333Y-85609523D01*
X70185714Y-85514285D01*
X70138095Y-85323809D01*
X70138095Y-85180952D01*
X70185714Y-84990476D01*
X70233333Y-84895238D01*
X70328571Y-84800000D01*
X70471428Y-84752380D01*
X70566666Y-84752380D01*
X70709523Y-84800000D01*
X70757142Y-84847619D01*
X71661904Y-84752380D02*
X71185714Y-84752380D01*
X71138095Y-85228571D01*
X71185714Y-85180952D01*
X71280952Y-85133333D01*
X71519047Y-85133333D01*
X71614285Y-85180952D01*
X71661904Y-85228571D01*
X71709523Y-85323809D01*
X71709523Y-85561904D01*
X71661904Y-85657142D01*
X71614285Y-85704761D01*
X71519047Y-85752380D01*
X71280952Y-85752380D01*
X71185714Y-85704761D01*
X71138095Y-85657142D01*
X72566666Y-85085714D02*
X72566666Y-85752380D01*
X72328571Y-84704761D02*
X72090476Y-85419047D01*
X72709523Y-85419047D01*
%TO.C,C32*%
X82897142Y-60483357D02*
X82944761Y-60530976D01*
X82992380Y-60673833D01*
X82992380Y-60769071D01*
X82944761Y-60911928D01*
X82849523Y-61007166D01*
X82754285Y-61054785D01*
X82563809Y-61102404D01*
X82420952Y-61102404D01*
X82230476Y-61054785D01*
X82135238Y-61007166D01*
X82040000Y-60911928D01*
X81992380Y-60769071D01*
X81992380Y-60673833D01*
X82040000Y-60530976D01*
X82087619Y-60483357D01*
X81992380Y-60150023D02*
X81992380Y-59530976D01*
X82373333Y-59864309D01*
X82373333Y-59721452D01*
X82420952Y-59626214D01*
X82468571Y-59578595D01*
X82563809Y-59530976D01*
X82801904Y-59530976D01*
X82897142Y-59578595D01*
X82944761Y-59626214D01*
X82992380Y-59721452D01*
X82992380Y-60007166D01*
X82944761Y-60102404D01*
X82897142Y-60150023D01*
X82087619Y-59150023D02*
X82040000Y-59102404D01*
X81992380Y-59007166D01*
X81992380Y-58769071D01*
X82040000Y-58673833D01*
X82087619Y-58626214D01*
X82182857Y-58578595D01*
X82278095Y-58578595D01*
X82420952Y-58626214D01*
X82992380Y-59197642D01*
X82992380Y-58578595D01*
%TO.C,R61*%
X82407142Y-105402380D02*
X82073809Y-104926190D01*
X81835714Y-105402380D02*
X81835714Y-104402380D01*
X82216666Y-104402380D01*
X82311904Y-104450000D01*
X82359523Y-104497619D01*
X82407142Y-104592857D01*
X82407142Y-104735714D01*
X82359523Y-104830952D01*
X82311904Y-104878571D01*
X82216666Y-104926190D01*
X81835714Y-104926190D01*
X83264285Y-104402380D02*
X83073809Y-104402380D01*
X82978571Y-104450000D01*
X82930952Y-104497619D01*
X82835714Y-104640476D01*
X82788095Y-104830952D01*
X82788095Y-105211904D01*
X82835714Y-105307142D01*
X82883333Y-105354761D01*
X82978571Y-105402380D01*
X83169047Y-105402380D01*
X83264285Y-105354761D01*
X83311904Y-105307142D01*
X83359523Y-105211904D01*
X83359523Y-104973809D01*
X83311904Y-104878571D01*
X83264285Y-104830952D01*
X83169047Y-104783333D01*
X82978571Y-104783333D01*
X82883333Y-104830952D01*
X82835714Y-104878571D01*
X82788095Y-104973809D01*
X84311904Y-105402380D02*
X83740476Y-105402380D01*
X84026190Y-105402380D02*
X84026190Y-104402380D01*
X83930952Y-104545238D01*
X83835714Y-104640476D01*
X83740476Y-104688095D01*
%TO.C,FB42*%
X84128571Y-84209523D02*
X84128571Y-84542857D01*
X84652380Y-84542857D02*
X83652380Y-84542857D01*
X83652380Y-84066666D01*
X84128571Y-83352380D02*
X84176190Y-83209523D01*
X84223809Y-83161904D01*
X84319047Y-83114285D01*
X84461904Y-83114285D01*
X84557142Y-83161904D01*
X84604761Y-83209523D01*
X84652380Y-83304761D01*
X84652380Y-83685714D01*
X83652380Y-83685714D01*
X83652380Y-83352380D01*
X83700000Y-83257142D01*
X83747619Y-83209523D01*
X83842857Y-83161904D01*
X83938095Y-83161904D01*
X84033333Y-83209523D01*
X84080952Y-83257142D01*
X84128571Y-83352380D01*
X84128571Y-83685714D01*
X83985714Y-82257142D02*
X84652380Y-82257142D01*
X83604761Y-82495238D02*
X84319047Y-82733333D01*
X84319047Y-82114285D01*
X83747619Y-81780952D02*
X83700000Y-81733333D01*
X83652380Y-81638095D01*
X83652380Y-81400000D01*
X83700000Y-81304761D01*
X83747619Y-81257142D01*
X83842857Y-81209523D01*
X83938095Y-81209523D01*
X84080952Y-81257142D01*
X84652380Y-81828571D01*
X84652380Y-81209523D01*
%TO.C,C1*%
X72633333Y-46157142D02*
X72585714Y-46204761D01*
X72442857Y-46252380D01*
X72347619Y-46252380D01*
X72204761Y-46204761D01*
X72109523Y-46109523D01*
X72061904Y-46014285D01*
X72014285Y-45823809D01*
X72014285Y-45680952D01*
X72061904Y-45490476D01*
X72109523Y-45395238D01*
X72204761Y-45300000D01*
X72347619Y-45252380D01*
X72442857Y-45252380D01*
X72585714Y-45300000D01*
X72633333Y-45347619D01*
X73585714Y-46252380D02*
X73014285Y-46252380D01*
X73300000Y-46252380D02*
X73300000Y-45252380D01*
X73204761Y-45395238D01*
X73109523Y-45490476D01*
X73014285Y-45538095D01*
%TO.C,JP22*%
X67190476Y-81852380D02*
X67190476Y-82566666D01*
X67142857Y-82709523D01*
X67047619Y-82804761D01*
X66904761Y-82852380D01*
X66809523Y-82852380D01*
X67666666Y-82852380D02*
X67666666Y-81852380D01*
X68047619Y-81852380D01*
X68142857Y-81900000D01*
X68190476Y-81947619D01*
X68238095Y-82042857D01*
X68238095Y-82185714D01*
X68190476Y-82280952D01*
X68142857Y-82328571D01*
X68047619Y-82376190D01*
X67666666Y-82376190D01*
X68619047Y-81947619D02*
X68666666Y-81900000D01*
X68761904Y-81852380D01*
X69000000Y-81852380D01*
X69095238Y-81900000D01*
X69142857Y-81947619D01*
X69190476Y-82042857D01*
X69190476Y-82138095D01*
X69142857Y-82280952D01*
X68571428Y-82852380D01*
X69190476Y-82852380D01*
X69571428Y-81947619D02*
X69619047Y-81900000D01*
X69714285Y-81852380D01*
X69952380Y-81852380D01*
X70047619Y-81900000D01*
X70095238Y-81947619D01*
X70142857Y-82042857D01*
X70142857Y-82138095D01*
X70095238Y-82280952D01*
X69523809Y-82852380D01*
X70142857Y-82852380D01*
%TO.C,R1*%
X72633333Y-47452380D02*
X72300000Y-46976190D01*
X72061904Y-47452380D02*
X72061904Y-46452380D01*
X72442857Y-46452380D01*
X72538095Y-46500000D01*
X72585714Y-46547619D01*
X72633333Y-46642857D01*
X72633333Y-46785714D01*
X72585714Y-46880952D01*
X72538095Y-46928571D01*
X72442857Y-46976190D01*
X72061904Y-46976190D01*
X73585714Y-47452380D02*
X73014285Y-47452380D01*
X73300000Y-47452380D02*
X73300000Y-46452380D01*
X73204761Y-46595238D01*
X73109523Y-46690476D01*
X73014285Y-46738095D01*
%TO.C,U11*%
X83502380Y-75300595D02*
X84311904Y-75300595D01*
X84407142Y-75252976D01*
X84454761Y-75205357D01*
X84502380Y-75110119D01*
X84502380Y-74919642D01*
X84454761Y-74824404D01*
X84407142Y-74776785D01*
X84311904Y-74729166D01*
X83502380Y-74729166D01*
X84502380Y-73729166D02*
X84502380Y-74300595D01*
X84502380Y-74014880D02*
X83502380Y-74014880D01*
X83645238Y-74110119D01*
X83740476Y-74205357D01*
X83788095Y-74300595D01*
X84502380Y-72776785D02*
X84502380Y-73348214D01*
X84502380Y-73062500D02*
X83502380Y-73062500D01*
X83645238Y-73157738D01*
X83740476Y-73252976D01*
X83788095Y-73348214D01*
%TO.C,JP21*%
X58352380Y-66809523D02*
X59066666Y-66809523D01*
X59209523Y-66857142D01*
X59304761Y-66952380D01*
X59352380Y-67095238D01*
X59352380Y-67190476D01*
X59352380Y-66333333D02*
X58352380Y-66333333D01*
X58352380Y-65952380D01*
X58400000Y-65857142D01*
X58447619Y-65809523D01*
X58542857Y-65761904D01*
X58685714Y-65761904D01*
X58780952Y-65809523D01*
X58828571Y-65857142D01*
X58876190Y-65952380D01*
X58876190Y-66333333D01*
X58447619Y-65380952D02*
X58400000Y-65333333D01*
X58352380Y-65238095D01*
X58352380Y-65000000D01*
X58400000Y-64904761D01*
X58447619Y-64857142D01*
X58542857Y-64809523D01*
X58638095Y-64809523D01*
X58780952Y-64857142D01*
X59352380Y-65428571D01*
X59352380Y-64809523D01*
X59352380Y-63857142D02*
X59352380Y-64428571D01*
X59352380Y-64142857D02*
X58352380Y-64142857D01*
X58495238Y-64238095D01*
X58590476Y-64333333D01*
X58638095Y-64428571D01*
%TO.C,U51*%
X67761904Y-92552380D02*
X67761904Y-93361904D01*
X67809523Y-93457142D01*
X67857142Y-93504761D01*
X67952380Y-93552380D01*
X68142857Y-93552380D01*
X68238095Y-93504761D01*
X68285714Y-93457142D01*
X68333333Y-93361904D01*
X68333333Y-92552380D01*
X69285714Y-92552380D02*
X68809523Y-92552380D01*
X68761904Y-93028571D01*
X68809523Y-92980952D01*
X68904761Y-92933333D01*
X69142857Y-92933333D01*
X69238095Y-92980952D01*
X69285714Y-93028571D01*
X69333333Y-93123809D01*
X69333333Y-93361904D01*
X69285714Y-93457142D01*
X69238095Y-93504761D01*
X69142857Y-93552380D01*
X68904761Y-93552380D01*
X68809523Y-93504761D01*
X68761904Y-93457142D01*
X70285714Y-93552380D02*
X69714285Y-93552380D01*
X70000000Y-93552380D02*
X70000000Y-92552380D01*
X69904761Y-92695238D01*
X69809523Y-92790476D01*
X69714285Y-92838095D01*
%TO.C,C21*%
X64107142Y-78242857D02*
X64154761Y-78290476D01*
X64202380Y-78433333D01*
X64202380Y-78528571D01*
X64154761Y-78671428D01*
X64059523Y-78766666D01*
X63964285Y-78814285D01*
X63773809Y-78861904D01*
X63630952Y-78861904D01*
X63440476Y-78814285D01*
X63345238Y-78766666D01*
X63250000Y-78671428D01*
X63202380Y-78528571D01*
X63202380Y-78433333D01*
X63250000Y-78290476D01*
X63297619Y-78242857D01*
X63297619Y-77861904D02*
X63250000Y-77814285D01*
X63202380Y-77719047D01*
X63202380Y-77480952D01*
X63250000Y-77385714D01*
X63297619Y-77338095D01*
X63392857Y-77290476D01*
X63488095Y-77290476D01*
X63630952Y-77338095D01*
X64202380Y-77909523D01*
X64202380Y-77290476D01*
X64202380Y-76338095D02*
X64202380Y-76909523D01*
X64202380Y-76623809D02*
X63202380Y-76623809D01*
X63345238Y-76719047D01*
X63440476Y-76814285D01*
X63488095Y-76909523D01*
%TO.C,C62*%
X69857142Y-111957142D02*
X69809523Y-112004761D01*
X69666666Y-112052380D01*
X69571428Y-112052380D01*
X69428571Y-112004761D01*
X69333333Y-111909523D01*
X69285714Y-111814285D01*
X69238095Y-111623809D01*
X69238095Y-111480952D01*
X69285714Y-111290476D01*
X69333333Y-111195238D01*
X69428571Y-111100000D01*
X69571428Y-111052380D01*
X69666666Y-111052380D01*
X69809523Y-111100000D01*
X69857142Y-111147619D01*
X70714285Y-111052380D02*
X70523809Y-111052380D01*
X70428571Y-111100000D01*
X70380952Y-111147619D01*
X70285714Y-111290476D01*
X70238095Y-111480952D01*
X70238095Y-111861904D01*
X70285714Y-111957142D01*
X70333333Y-112004761D01*
X70428571Y-112052380D01*
X70619047Y-112052380D01*
X70714285Y-112004761D01*
X70761904Y-111957142D01*
X70809523Y-111861904D01*
X70809523Y-111623809D01*
X70761904Y-111528571D01*
X70714285Y-111480952D01*
X70619047Y-111433333D01*
X70428571Y-111433333D01*
X70333333Y-111480952D01*
X70285714Y-111528571D01*
X70238095Y-111623809D01*
X71190476Y-111147619D02*
X71238095Y-111100000D01*
X71333333Y-111052380D01*
X71571428Y-111052380D01*
X71666666Y-111100000D01*
X71714285Y-111147619D01*
X71761904Y-111242857D01*
X71761904Y-111338095D01*
X71714285Y-111480952D01*
X71142857Y-112052380D01*
X71761904Y-112052380D01*
%TO.C,R31*%
X73507142Y-59192880D02*
X73173809Y-58716690D01*
X72935714Y-59192880D02*
X72935714Y-58192880D01*
X73316666Y-58192880D01*
X73411904Y-58240500D01*
X73459523Y-58288119D01*
X73507142Y-58383357D01*
X73507142Y-58526214D01*
X73459523Y-58621452D01*
X73411904Y-58669071D01*
X73316666Y-58716690D01*
X72935714Y-58716690D01*
X73840476Y-58192880D02*
X74459523Y-58192880D01*
X74126190Y-58573833D01*
X74269047Y-58573833D01*
X74364285Y-58621452D01*
X74411904Y-58669071D01*
X74459523Y-58764309D01*
X74459523Y-59002404D01*
X74411904Y-59097642D01*
X74364285Y-59145261D01*
X74269047Y-59192880D01*
X73983333Y-59192880D01*
X73888095Y-59145261D01*
X73840476Y-59097642D01*
X75411904Y-59192880D02*
X74840476Y-59192880D01*
X75126190Y-59192880D02*
X75126190Y-58192880D01*
X75030952Y-58335738D01*
X74935714Y-58430976D01*
X74840476Y-58478595D01*
%TO.C,U61*%
X74861904Y-102552380D02*
X74861904Y-103361904D01*
X74909523Y-103457142D01*
X74957142Y-103504761D01*
X75052380Y-103552380D01*
X75242857Y-103552380D01*
X75338095Y-103504761D01*
X75385714Y-103457142D01*
X75433333Y-103361904D01*
X75433333Y-102552380D01*
X76338095Y-102552380D02*
X76147619Y-102552380D01*
X76052380Y-102600000D01*
X76004761Y-102647619D01*
X75909523Y-102790476D01*
X75861904Y-102980952D01*
X75861904Y-103361904D01*
X75909523Y-103457142D01*
X75957142Y-103504761D01*
X76052380Y-103552380D01*
X76242857Y-103552380D01*
X76338095Y-103504761D01*
X76385714Y-103457142D01*
X76433333Y-103361904D01*
X76433333Y-103123809D01*
X76385714Y-103028571D01*
X76338095Y-102980952D01*
X76242857Y-102933333D01*
X76052380Y-102933333D01*
X75957142Y-102980952D01*
X75909523Y-103028571D01*
X75861904Y-103123809D01*
X77385714Y-103552380D02*
X76814285Y-103552380D01*
X77100000Y-103552380D02*
X77100000Y-102552380D01*
X77004761Y-102695238D01*
X76909523Y-102790476D01*
X76814285Y-102838095D01*
%TO.C,C22*%
X69357142Y-72842857D02*
X69404761Y-72890476D01*
X69452380Y-73033333D01*
X69452380Y-73128571D01*
X69404761Y-73271428D01*
X69309523Y-73366666D01*
X69214285Y-73414285D01*
X69023809Y-73461904D01*
X68880952Y-73461904D01*
X68690476Y-73414285D01*
X68595238Y-73366666D01*
X68500000Y-73271428D01*
X68452380Y-73128571D01*
X68452380Y-73033333D01*
X68500000Y-72890476D01*
X68547619Y-72842857D01*
X68547619Y-72461904D02*
X68500000Y-72414285D01*
X68452380Y-72319047D01*
X68452380Y-72080952D01*
X68500000Y-71985714D01*
X68547619Y-71938095D01*
X68642857Y-71890476D01*
X68738095Y-71890476D01*
X68880952Y-71938095D01*
X69452380Y-72509523D01*
X69452380Y-71890476D01*
X68547619Y-71509523D02*
X68500000Y-71461904D01*
X68452380Y-71366666D01*
X68452380Y-71128571D01*
X68500000Y-71033333D01*
X68547619Y-70985714D01*
X68642857Y-70938095D01*
X68738095Y-70938095D01*
X68880952Y-70985714D01*
X69452380Y-71557142D01*
X69452380Y-70938095D01*
%TO.C,R51*%
X65457142Y-89152380D02*
X65123809Y-88676190D01*
X64885714Y-89152380D02*
X64885714Y-88152380D01*
X65266666Y-88152380D01*
X65361904Y-88200000D01*
X65409523Y-88247619D01*
X65457142Y-88342857D01*
X65457142Y-88485714D01*
X65409523Y-88580952D01*
X65361904Y-88628571D01*
X65266666Y-88676190D01*
X64885714Y-88676190D01*
X66361904Y-88152380D02*
X65885714Y-88152380D01*
X65838095Y-88628571D01*
X65885714Y-88580952D01*
X65980952Y-88533333D01*
X66219047Y-88533333D01*
X66314285Y-88580952D01*
X66361904Y-88628571D01*
X66409523Y-88723809D01*
X66409523Y-88961904D01*
X66361904Y-89057142D01*
X66314285Y-89104761D01*
X66219047Y-89152380D01*
X65980952Y-89152380D01*
X65885714Y-89104761D01*
X65838095Y-89057142D01*
X67361904Y-89152380D02*
X66790476Y-89152380D01*
X67076190Y-89152380D02*
X67076190Y-88152380D01*
X66980952Y-88295238D01*
X66885714Y-88390476D01*
X66790476Y-88438095D01*
%TO.C,C53*%
X70757142Y-86857142D02*
X70709523Y-86904761D01*
X70566666Y-86952380D01*
X70471428Y-86952380D01*
X70328571Y-86904761D01*
X70233333Y-86809523D01*
X70185714Y-86714285D01*
X70138095Y-86523809D01*
X70138095Y-86380952D01*
X70185714Y-86190476D01*
X70233333Y-86095238D01*
X70328571Y-86000000D01*
X70471428Y-85952380D01*
X70566666Y-85952380D01*
X70709523Y-86000000D01*
X70757142Y-86047619D01*
X71661904Y-85952380D02*
X71185714Y-85952380D01*
X71138095Y-86428571D01*
X71185714Y-86380952D01*
X71280952Y-86333333D01*
X71519047Y-86333333D01*
X71614285Y-86380952D01*
X71661904Y-86428571D01*
X71709523Y-86523809D01*
X71709523Y-86761904D01*
X71661904Y-86857142D01*
X71614285Y-86904761D01*
X71519047Y-86952380D01*
X71280952Y-86952380D01*
X71185714Y-86904761D01*
X71138095Y-86857142D01*
X72042857Y-85952380D02*
X72661904Y-85952380D01*
X72328571Y-86333333D01*
X72471428Y-86333333D01*
X72566666Y-86380952D01*
X72614285Y-86428571D01*
X72661904Y-86523809D01*
X72661904Y-86761904D01*
X72614285Y-86857142D01*
X72566666Y-86904761D01*
X72471428Y-86952380D01*
X72185714Y-86952380D01*
X72090476Y-86904761D01*
X72042857Y-86857142D01*
%TO.C,C34*%
X82997142Y-64283357D02*
X83044761Y-64330976D01*
X83092380Y-64473833D01*
X83092380Y-64569071D01*
X83044761Y-64711928D01*
X82949523Y-64807166D01*
X82854285Y-64854785D01*
X82663809Y-64902404D01*
X82520952Y-64902404D01*
X82330476Y-64854785D01*
X82235238Y-64807166D01*
X82140000Y-64711928D01*
X82092380Y-64569071D01*
X82092380Y-64473833D01*
X82140000Y-64330976D01*
X82187619Y-64283357D01*
X82092380Y-63950023D02*
X82092380Y-63330976D01*
X82473333Y-63664309D01*
X82473333Y-63521452D01*
X82520952Y-63426214D01*
X82568571Y-63378595D01*
X82663809Y-63330976D01*
X82901904Y-63330976D01*
X82997142Y-63378595D01*
X83044761Y-63426214D01*
X83092380Y-63521452D01*
X83092380Y-63807166D01*
X83044761Y-63902404D01*
X82997142Y-63950023D01*
X82425714Y-62473833D02*
X83092380Y-62473833D01*
X82044761Y-62711928D02*
X82759047Y-62950023D01*
X82759047Y-62330976D01*
%TO.C,J41*%
X68952380Y-98809523D02*
X69666666Y-98809523D01*
X69809523Y-98857142D01*
X69904761Y-98952380D01*
X69952380Y-99095238D01*
X69952380Y-99190476D01*
X69285714Y-97904761D02*
X69952380Y-97904761D01*
X68904761Y-98142857D02*
X69619047Y-98380952D01*
X69619047Y-97761904D01*
X69952380Y-96857142D02*
X69952380Y-97428571D01*
X69952380Y-97142857D02*
X68952380Y-97142857D01*
X69095238Y-97238095D01*
X69190476Y-97333333D01*
X69238095Y-97428571D01*
%TO.C,D61*%
X82685714Y-113352380D02*
X82685714Y-112352380D01*
X82923809Y-112352380D01*
X83066666Y-112400000D01*
X83161904Y-112495238D01*
X83209523Y-112590476D01*
X83257142Y-112780952D01*
X83257142Y-112923809D01*
X83209523Y-113114285D01*
X83161904Y-113209523D01*
X83066666Y-113304761D01*
X82923809Y-113352380D01*
X82685714Y-113352380D01*
X84114285Y-112352380D02*
X83923809Y-112352380D01*
X83828571Y-112400000D01*
X83780952Y-112447619D01*
X83685714Y-112590476D01*
X83638095Y-112780952D01*
X83638095Y-113161904D01*
X83685714Y-113257142D01*
X83733333Y-113304761D01*
X83828571Y-113352380D01*
X84019047Y-113352380D01*
X84114285Y-113304761D01*
X84161904Y-113257142D01*
X84209523Y-113161904D01*
X84209523Y-112923809D01*
X84161904Y-112828571D01*
X84114285Y-112780952D01*
X84019047Y-112733333D01*
X83828571Y-112733333D01*
X83733333Y-112780952D01*
X83685714Y-112828571D01*
X83638095Y-112923809D01*
X85161904Y-113352380D02*
X84590476Y-113352380D01*
X84876190Y-113352380D02*
X84876190Y-112352380D01*
X84780952Y-112495238D01*
X84685714Y-112590476D01*
X84590476Y-112638095D01*
%TO.C,C51*%
X74057142Y-86857142D02*
X74009523Y-86904761D01*
X73866666Y-86952380D01*
X73771428Y-86952380D01*
X73628571Y-86904761D01*
X73533333Y-86809523D01*
X73485714Y-86714285D01*
X73438095Y-86523809D01*
X73438095Y-86380952D01*
X73485714Y-86190476D01*
X73533333Y-86095238D01*
X73628571Y-86000000D01*
X73771428Y-85952380D01*
X73866666Y-85952380D01*
X74009523Y-86000000D01*
X74057142Y-86047619D01*
X74961904Y-85952380D02*
X74485714Y-85952380D01*
X74438095Y-86428571D01*
X74485714Y-86380952D01*
X74580952Y-86333333D01*
X74819047Y-86333333D01*
X74914285Y-86380952D01*
X74961904Y-86428571D01*
X75009523Y-86523809D01*
X75009523Y-86761904D01*
X74961904Y-86857142D01*
X74914285Y-86904761D01*
X74819047Y-86952380D01*
X74580952Y-86952380D01*
X74485714Y-86904761D01*
X74438095Y-86857142D01*
X75961904Y-86952380D02*
X75390476Y-86952380D01*
X75676190Y-86952380D02*
X75676190Y-85952380D01*
X75580952Y-86095238D01*
X75485714Y-86190476D01*
X75390476Y-86238095D01*
%TO.C,C12*%
X83657142Y-77407142D02*
X83609523Y-77454761D01*
X83466666Y-77502380D01*
X83371428Y-77502380D01*
X83228571Y-77454761D01*
X83133333Y-77359523D01*
X83085714Y-77264285D01*
X83038095Y-77073809D01*
X83038095Y-76930952D01*
X83085714Y-76740476D01*
X83133333Y-76645238D01*
X83228571Y-76550000D01*
X83371428Y-76502380D01*
X83466666Y-76502380D01*
X83609523Y-76550000D01*
X83657142Y-76597619D01*
X84609523Y-77502380D02*
X84038095Y-77502380D01*
X84323809Y-77502380D02*
X84323809Y-76502380D01*
X84228571Y-76645238D01*
X84133333Y-76740476D01*
X84038095Y-76788095D01*
X84990476Y-76597619D02*
X85038095Y-76550000D01*
X85133333Y-76502380D01*
X85371428Y-76502380D01*
X85466666Y-76550000D01*
X85514285Y-76597619D01*
X85561904Y-76692857D01*
X85561904Y-76788095D01*
X85514285Y-76930952D01*
X84942857Y-77502380D01*
X85561904Y-77502380D01*
%TO.C,C61*%
X69857142Y-110757142D02*
X69809523Y-110804761D01*
X69666666Y-110852380D01*
X69571428Y-110852380D01*
X69428571Y-110804761D01*
X69333333Y-110709523D01*
X69285714Y-110614285D01*
X69238095Y-110423809D01*
X69238095Y-110280952D01*
X69285714Y-110090476D01*
X69333333Y-109995238D01*
X69428571Y-109900000D01*
X69571428Y-109852380D01*
X69666666Y-109852380D01*
X69809523Y-109900000D01*
X69857142Y-109947619D01*
X70714285Y-109852380D02*
X70523809Y-109852380D01*
X70428571Y-109900000D01*
X70380952Y-109947619D01*
X70285714Y-110090476D01*
X70238095Y-110280952D01*
X70238095Y-110661904D01*
X70285714Y-110757142D01*
X70333333Y-110804761D01*
X70428571Y-110852380D01*
X70619047Y-110852380D01*
X70714285Y-110804761D01*
X70761904Y-110757142D01*
X70809523Y-110661904D01*
X70809523Y-110423809D01*
X70761904Y-110328571D01*
X70714285Y-110280952D01*
X70619047Y-110233333D01*
X70428571Y-110233333D01*
X70333333Y-110280952D01*
X70285714Y-110328571D01*
X70238095Y-110423809D01*
X71761904Y-110852380D02*
X71190476Y-110852380D01*
X71476190Y-110852380D02*
X71476190Y-109852380D01*
X71380952Y-109995238D01*
X71285714Y-110090476D01*
X71190476Y-110138095D01*
%TO.C,C23*%
X63857142Y-67977142D02*
X63809523Y-68024761D01*
X63666666Y-68072380D01*
X63571428Y-68072380D01*
X63428571Y-68024761D01*
X63333333Y-67929523D01*
X63285714Y-67834285D01*
X63238095Y-67643809D01*
X63238095Y-67500952D01*
X63285714Y-67310476D01*
X63333333Y-67215238D01*
X63428571Y-67120000D01*
X63571428Y-67072380D01*
X63666666Y-67072380D01*
X63809523Y-67120000D01*
X63857142Y-67167619D01*
X64238095Y-67167619D02*
X64285714Y-67120000D01*
X64380952Y-67072380D01*
X64619047Y-67072380D01*
X64714285Y-67120000D01*
X64761904Y-67167619D01*
X64809523Y-67262857D01*
X64809523Y-67358095D01*
X64761904Y-67500952D01*
X64190476Y-68072380D01*
X64809523Y-68072380D01*
X65142857Y-67072380D02*
X65761904Y-67072380D01*
X65428571Y-67453333D01*
X65571428Y-67453333D01*
X65666666Y-67500952D01*
X65714285Y-67548571D01*
X65761904Y-67643809D01*
X65761904Y-67881904D01*
X65714285Y-67977142D01*
X65666666Y-68024761D01*
X65571428Y-68072380D01*
X65285714Y-68072380D01*
X65190476Y-68024761D01*
X65142857Y-67977142D01*
%TO.C,J2*%
X61656666Y-61522380D02*
X61656666Y-62236666D01*
X61609047Y-62379523D01*
X61513809Y-62474761D01*
X61370952Y-62522380D01*
X61275714Y-62522380D01*
X62085238Y-61617619D02*
X62132857Y-61570000D01*
X62228095Y-61522380D01*
X62466190Y-61522380D01*
X62561428Y-61570000D01*
X62609047Y-61617619D01*
X62656666Y-61712857D01*
X62656666Y-61808095D01*
X62609047Y-61950952D01*
X62037619Y-62522380D01*
X62656666Y-62522380D01*
%TO.C,FB41*%
X82928571Y-93809523D02*
X82928571Y-94142857D01*
X83452380Y-94142857D02*
X82452380Y-94142857D01*
X82452380Y-93666666D01*
X82928571Y-92952380D02*
X82976190Y-92809523D01*
X83023809Y-92761904D01*
X83119047Y-92714285D01*
X83261904Y-92714285D01*
X83357142Y-92761904D01*
X83404761Y-92809523D01*
X83452380Y-92904761D01*
X83452380Y-93285714D01*
X82452380Y-93285714D01*
X82452380Y-92952380D01*
X82500000Y-92857142D01*
X82547619Y-92809523D01*
X82642857Y-92761904D01*
X82738095Y-92761904D01*
X82833333Y-92809523D01*
X82880952Y-92857142D01*
X82928571Y-92952380D01*
X82928571Y-93285714D01*
X82785714Y-91857142D02*
X83452380Y-91857142D01*
X82404761Y-92095238D02*
X83119047Y-92333333D01*
X83119047Y-91714285D01*
X83452380Y-90809523D02*
X83452380Y-91380952D01*
X83452380Y-91095238D02*
X82452380Y-91095238D01*
X82595238Y-91190476D01*
X82690476Y-91285714D01*
X82738095Y-91380952D01*
%TO.C,C52*%
X74057142Y-85657142D02*
X74009523Y-85704761D01*
X73866666Y-85752380D01*
X73771428Y-85752380D01*
X73628571Y-85704761D01*
X73533333Y-85609523D01*
X73485714Y-85514285D01*
X73438095Y-85323809D01*
X73438095Y-85180952D01*
X73485714Y-84990476D01*
X73533333Y-84895238D01*
X73628571Y-84800000D01*
X73771428Y-84752380D01*
X73866666Y-84752380D01*
X74009523Y-84800000D01*
X74057142Y-84847619D01*
X74961904Y-84752380D02*
X74485714Y-84752380D01*
X74438095Y-85228571D01*
X74485714Y-85180952D01*
X74580952Y-85133333D01*
X74819047Y-85133333D01*
X74914285Y-85180952D01*
X74961904Y-85228571D01*
X75009523Y-85323809D01*
X75009523Y-85561904D01*
X74961904Y-85657142D01*
X74914285Y-85704761D01*
X74819047Y-85752380D01*
X74580952Y-85752380D01*
X74485714Y-85704761D01*
X74438095Y-85657142D01*
X75390476Y-84847619D02*
X75438095Y-84800000D01*
X75533333Y-84752380D01*
X75771428Y-84752380D01*
X75866666Y-84800000D01*
X75914285Y-84847619D01*
X75961904Y-84942857D01*
X75961904Y-85038095D01*
X75914285Y-85180952D01*
X75342857Y-85752380D01*
X75961904Y-85752380D01*
D13*
%TO.C,R41*%
X77046359Y-92980000D02*
X77353641Y-92980000D01*
X77046359Y-92220000D02*
X77353641Y-92220000D01*
%TO.C,D1*%
X75340000Y-44500000D02*
X75340000Y-46400000D01*
X77660000Y-45900000D02*
X77660000Y-44500000D01*
%TO.C,C33*%
X81700000Y-61148336D02*
X81700000Y-60932664D01*
X80980000Y-61148336D02*
X80980000Y-60932664D01*
%TO.C,C63*%
X73092164Y-107160000D02*
X73307836Y-107160000D01*
X73092164Y-106440000D02*
X73307836Y-106440000D01*
%TO.C,C11*%
X79460000Y-73921920D02*
X79460000Y-74203080D01*
X78440000Y-73921920D02*
X78440000Y-74203080D01*
D14*
%TO.C,D51*%
X58460000Y-113000000D02*
G75*
G03*
X58460000Y-113000000I-50000J0D01*
G01*
D13*
%TO.C,C24*%
X65240000Y-74559420D02*
X65240000Y-74840580D01*
X66260000Y-74559420D02*
X66260000Y-74840580D01*
%TO.C,R21*%
X67553641Y-69380000D02*
X67246359Y-69380000D01*
X67553641Y-68620000D02*
X67246359Y-68620000D01*
%TO.C,C42*%
X77340580Y-94910000D02*
X77059420Y-94910000D01*
X77340580Y-93890000D02*
X77059420Y-93890000D01*
%TO.C,R22*%
X67246359Y-70480000D02*
X67553641Y-70480000D01*
X67246359Y-69720000D02*
X67553641Y-69720000D01*
%TO.C,FB31*%
X75740378Y-56580500D02*
X76539622Y-56580500D01*
X75740378Y-57700500D02*
X76539622Y-57700500D01*
%TO.C,C64*%
X73659420Y-107690000D02*
X73940580Y-107690000D01*
X73659420Y-108710000D02*
X73940580Y-108710000D01*
%TO.C,FB11*%
X77760000Y-71800378D02*
X77760000Y-72599622D01*
X76640000Y-71800378D02*
X76640000Y-72599622D01*
%TO.C,U21*%
X66120000Y-71000000D02*
X66120000Y-72000000D01*
X63880000Y-73000000D02*
X63880000Y-71000000D01*
%TO.C,C31*%
X79399420Y-57930500D02*
X79680580Y-57930500D01*
X79399420Y-58950500D02*
X79680580Y-58950500D01*
%TO.C,C41*%
X77340580Y-102110000D02*
X77059420Y-102110000D01*
X77340580Y-101090000D02*
X77059420Y-101090000D01*
%TO.C,U31*%
X73840000Y-59940500D02*
X73840000Y-60665500D01*
X74565000Y-59940500D02*
X73840000Y-59940500D01*
X74565000Y-65160500D02*
X73840000Y-65160500D01*
X79060000Y-59940500D02*
X79060000Y-60665500D01*
X78335000Y-59940500D02*
X79060000Y-59940500D01*
X78335000Y-65160500D02*
X79060000Y-65160500D01*
X73840000Y-65160500D02*
X73840000Y-64435500D01*
%TO.C,FB21*%
X60140000Y-72575378D02*
X60140000Y-73374622D01*
X61260000Y-72575378D02*
X61260000Y-73374622D01*
%TO.C,C54*%
X71540580Y-87395000D02*
X71259420Y-87395000D01*
X71540580Y-88415000D02*
X71259420Y-88415000D01*
%TO.C,C32*%
X79880000Y-60448336D02*
X79880000Y-60232664D01*
X80600000Y-60448336D02*
X80600000Y-60232664D01*
%TO.C,R61*%
X78872936Y-104215000D02*
X79327064Y-104215000D01*
X78872936Y-105685000D02*
X79327064Y-105685000D01*
%TO.C,FB42*%
X82040000Y-83299622D02*
X82040000Y-82500378D01*
X83160000Y-83299622D02*
X83160000Y-82500378D01*
%TO.C,C1*%
X72667164Y-43760000D02*
X72882836Y-43760000D01*
X72667164Y-43040000D02*
X72882836Y-43040000D01*
%TO.C,JP22*%
X67100000Y-80600000D02*
X67100000Y-80000000D01*
X69200000Y-81300000D02*
X67800000Y-81300000D01*
X69900000Y-80000000D02*
X69900000Y-80600000D01*
X67800000Y-79300000D02*
X69200000Y-79300000D01*
X69200000Y-81300000D02*
G75*
G03*
X69900000Y-80600000I0J700000D01*
G01*
X69900000Y-80000000D02*
G75*
G03*
X69200000Y-79300000I-700000J0D01*
G01*
X67100000Y-80600000D02*
G75*
G03*
X67800000Y-81300000I699999J-1D01*
G01*
X67800000Y-79300000D02*
G75*
G03*
X67100000Y-80000000I-1J-699999D01*
G01*
%TO.C,R1*%
X72621359Y-44980000D02*
X72928641Y-44980000D01*
X72621359Y-44220000D02*
X72928641Y-44220000D01*
%TO.C,U11*%
X83110000Y-74062500D02*
X83110000Y-74712500D01*
X83110000Y-74062500D02*
X83110000Y-73412500D01*
X79990000Y-74062500D02*
X79990000Y-75737500D01*
X79990000Y-74062500D02*
X79990000Y-73412500D01*
%TO.C,J1*%
X72065000Y-41410000D02*
X72065000Y-39640000D01*
X79685000Y-41410000D02*
X79305000Y-41410000D01*
X72065000Y-37360000D02*
X72065000Y-37100000D01*
X79685000Y-39640000D02*
X79685000Y-41410000D01*
X72065000Y-41410000D02*
X72445000Y-41410000D01*
X79685000Y-37100000D02*
X79685000Y-37360000D01*
%TO.C,JP21*%
X60400000Y-64100000D02*
X61000000Y-64100000D01*
X61700000Y-64800000D02*
X61700000Y-66200000D01*
X59700000Y-66200000D02*
X59700000Y-64800000D01*
X61000000Y-66900000D02*
X60400000Y-66900000D01*
X60400000Y-64100000D02*
G75*
G03*
X59700000Y-64800000I0J-700000D01*
G01*
X61700000Y-64800000D02*
G75*
G03*
X61000000Y-64100000I-700000J0D01*
G01*
X59700000Y-66200000D02*
G75*
G03*
X60400000Y-66900000I699999J-1D01*
G01*
X61000000Y-66900000D02*
G75*
G03*
X61700000Y-66200000I1J699999D01*
G01*
%TO.C,U51*%
X72500000Y-90440000D02*
X70700000Y-90440000D01*
X72500000Y-90440000D02*
X73300000Y-90440000D01*
X72500000Y-93560000D02*
X73300000Y-93560000D01*
X72500000Y-93560000D02*
X71700000Y-93560000D01*
%TO.C,C21*%
X63240000Y-74559420D02*
X63240000Y-74840580D01*
X64260000Y-74559420D02*
X64260000Y-74840580D01*
%TO.C,C62*%
X70640580Y-107690000D02*
X70359420Y-107690000D01*
X70640580Y-108710000D02*
X70359420Y-108710000D01*
%TO.C,R31*%
X76696359Y-58360500D02*
X77003641Y-58360500D01*
X76696359Y-59120500D02*
X77003641Y-59120500D01*
%TO.C,U61*%
X72700000Y-105560000D02*
X71900000Y-105560000D01*
X72700000Y-105560000D02*
X74500000Y-105560000D01*
X72700000Y-102440000D02*
X73500000Y-102440000D01*
X72700000Y-102440000D02*
X71900000Y-102440000D01*
%TO.C,C22*%
X68010000Y-72340580D02*
X68010000Y-72059420D01*
X66990000Y-72340580D02*
X66990000Y-72059420D01*
%TO.C,R51*%
X66327064Y-90315000D02*
X65872936Y-90315000D01*
X66327064Y-91785000D02*
X65872936Y-91785000D01*
%TO.C,C53*%
X72132836Y-88945000D02*
X71917164Y-88945000D01*
X72132836Y-89665000D02*
X71917164Y-89665000D01*
%TO.C,C34*%
X81650000Y-63499920D02*
X81650000Y-63781080D01*
X80630000Y-63499920D02*
X80630000Y-63781080D01*
%TO.C,J41*%
X78660000Y-95940000D02*
X70540000Y-95940000D01*
X78660000Y-99000000D02*
X78660000Y-100060000D01*
X78660000Y-98000000D02*
X76600000Y-98000000D01*
X78660000Y-95940000D02*
X78660000Y-98000000D01*
X76600000Y-100060000D02*
X70540000Y-100060000D01*
X78660000Y-100060000D02*
X77600000Y-100060000D01*
X70540000Y-95940000D02*
X70540000Y-100060000D01*
X76600000Y-98000000D02*
X76600000Y-100060000D01*
D14*
%TO.C,D61*%
X81540000Y-112900000D02*
G75*
G03*
X81540000Y-112900000I-50000J0D01*
G01*
D13*
%TO.C,C51*%
X73992164Y-89660000D02*
X74207836Y-89660000D01*
X73992164Y-88940000D02*
X74207836Y-88940000D01*
%TO.C,C12*%
X81690580Y-76552500D02*
X81409420Y-76552500D01*
X81690580Y-77572500D02*
X81409420Y-77572500D01*
%TO.C,C61*%
X71207836Y-107160000D02*
X70992164Y-107160000D01*
X71207836Y-106440000D02*
X70992164Y-106440000D01*
%TO.C,C23*%
X64359420Y-69560000D02*
X64640580Y-69560000D01*
X64359420Y-68540000D02*
X64640580Y-68540000D01*
%TO.C,J2*%
X64935000Y-55990000D02*
X62275000Y-55990000D01*
X64935000Y-61130000D02*
X64935000Y-50850000D01*
X62275000Y-55100000D02*
X56275000Y-55100000D01*
X62275000Y-59760000D02*
X56275000Y-59760000D01*
X56275000Y-56880000D02*
X62275000Y-56880000D01*
X65332071Y-51800000D02*
X64935000Y-51800000D01*
X62275000Y-52560000D02*
X56275000Y-52560000D01*
X65332071Y-56880000D02*
X64935000Y-56880000D01*
X64935000Y-53450000D02*
X62275000Y-53450000D01*
X56275000Y-54340000D02*
X62275000Y-54340000D01*
X65332071Y-54340000D02*
X64935000Y-54340000D01*
X62275000Y-57640000D02*
X56275000Y-57640000D01*
X65332071Y-57640000D02*
X64935000Y-57640000D01*
X62275000Y-61130000D02*
X64935000Y-61130000D01*
X62275000Y-59880000D02*
X56275000Y-59880000D01*
X64935000Y-50850000D02*
X62275000Y-50850000D01*
X65265000Y-59420000D02*
X64935000Y-59420000D01*
X65265000Y-60180000D02*
X64935000Y-60180000D01*
X65332071Y-52560000D02*
X64935000Y-52560000D01*
X67645000Y-59800000D02*
X67645000Y-61070000D01*
X56275000Y-55100000D02*
X56275000Y-54340000D01*
X64935000Y-58530000D02*
X62275000Y-58530000D01*
X65332071Y-55100000D02*
X64935000Y-55100000D01*
X62275000Y-50850000D02*
X62275000Y-61130000D01*
X62275000Y-60180000D02*
X56275000Y-60180000D01*
X62275000Y-59520000D02*
X56275000Y-59520000D01*
X62275000Y-60000000D02*
X56275000Y-60000000D01*
X62275000Y-59640000D02*
X56275000Y-59640000D01*
X62275000Y-60120000D02*
X56275000Y-60120000D01*
X56275000Y-60180000D02*
X56275000Y-59420000D01*
X56275000Y-59420000D02*
X62275000Y-59420000D01*
X67645000Y-61070000D02*
X66375000Y-61070000D01*
X56275000Y-52560000D02*
X56275000Y-51800000D01*
X56275000Y-51800000D02*
X62275000Y-51800000D01*
X56275000Y-57640000D02*
X56275000Y-56880000D01*
%TO.C,FB41*%
X82440000Y-95600378D02*
X82440000Y-96399622D01*
X83560000Y-95600378D02*
X83560000Y-96399622D01*
%TO.C,C52*%
X74559420Y-88410000D02*
X74840580Y-88410000D01*
X74559420Y-87390000D02*
X74840580Y-87390000D01*
%TD*%
M02*
