%TF.GenerationSoftware,KiCad,Pcbnew,6.0.7+dfsg-3*%
%TF.CreationDate,2022-09-21T21:46:23+02:00*%
%TF.ProjectId,Adapter_RCB_F9T,41646170-7465-4725-9f52-43425f463954,1*%
%TF.SameCoordinates,Original*%
%TF.FileFunction,Paste,Top*%
%TF.FilePolarity,Positive*%
%FSLAX46Y46*%
G04 Gerber Fmt 4.6, Leading zero omitted, Abs format (unit mm)*
G04 Created by KiCad (PCBNEW 6.0.7+dfsg-3) date 2022-09-21 21:46:23*
%MOMM*%
%LPD*%
G01*
G04 APERTURE LIST*
G04 Aperture macros list*
%AMRoundRect*
0 Rectangle with rounded corners*
0 $1 Rounding radius*
0 $2 $3 $4 $5 $6 $7 $8 $9 X,Y pos of 4 corners*
0 Add a 4 corners polygon primitive as box body*
4,1,4,$2,$3,$4,$5,$6,$7,$8,$9,$2,$3,0*
0 Add four circle primitives for the rounded corners*
1,1,$1+$1,$2,$3*
1,1,$1+$1,$4,$5*
1,1,$1+$1,$6,$7*
1,1,$1+$1,$8,$9*
0 Add four rect primitives between the rounded corners*
20,1,$1+$1,$2,$3,$4,$5,0*
20,1,$1+$1,$4,$5,$6,$7,0*
20,1,$1+$1,$6,$7,$8,$9,0*
20,1,$1+$1,$8,$9,$2,$3,0*%
G04 Aperture macros list end*
%ADD10RoundRect,0.135000X-0.135000X-0.185000X0.135000X-0.185000X0.135000X0.185000X-0.135000X0.185000X0*%
%ADD11R,0.400000X0.650000*%
%ADD12RoundRect,0.140000X0.170000X-0.140000X0.170000X0.140000X-0.170000X0.140000X-0.170000X-0.140000X0*%
%ADD13RoundRect,0.140000X-0.140000X-0.170000X0.140000X-0.170000X0.140000X0.170000X-0.140000X0.170000X0*%
%ADD14RoundRect,0.225000X-0.250000X0.225000X-0.250000X-0.225000X0.250000X-0.225000X0.250000X0.225000X0*%
%ADD15RoundRect,0.147500X-0.147500X-0.172500X0.147500X-0.172500X0.147500X0.172500X-0.147500X0.172500X0*%
%ADD16RoundRect,0.135000X0.135000X0.185000X-0.135000X0.185000X-0.135000X-0.185000X0.135000X-0.185000X0*%
%ADD17RoundRect,0.225000X0.225000X0.250000X-0.225000X0.250000X-0.225000X-0.250000X0.225000X-0.250000X0*%
%ADD18RoundRect,0.218750X-0.218750X-0.381250X0.218750X-0.381250X0.218750X0.381250X-0.218750X0.381250X0*%
%ADD19RoundRect,0.225000X-0.225000X-0.250000X0.225000X-0.250000X0.225000X0.250000X-0.225000X0.250000X0*%
%ADD20RoundRect,0.218750X-0.381250X0.218750X-0.381250X-0.218750X0.381250X-0.218750X0.381250X0.218750X0*%
%ADD21R,0.650000X0.750000*%
%ADD22R,0.250000X0.500000*%
%ADD23RoundRect,0.225000X0.225000X0.225000X-0.225000X0.225000X-0.225000X-0.225000X0.225000X-0.225000X0*%
%ADD24RoundRect,0.062500X0.337500X0.062500X-0.337500X0.062500X-0.337500X-0.062500X0.337500X-0.062500X0*%
%ADD25RoundRect,0.062500X0.062500X0.337500X-0.062500X0.337500X-0.062500X-0.337500X0.062500X-0.337500X0*%
%ADD26R,1.500000X4.500000*%
%ADD27RoundRect,0.250000X-0.262500X-0.450000X0.262500X-0.450000X0.262500X0.450000X-0.262500X0.450000X0*%
%ADD28RoundRect,0.218750X0.381250X-0.218750X0.381250X0.218750X-0.381250X0.218750X-0.381250X-0.218750X0*%
%ADD29RoundRect,0.150000X0.150000X-0.587500X0.150000X0.587500X-0.150000X0.587500X-0.150000X-0.587500X0*%
%ADD30R,0.450000X1.380000*%
%ADD31R,1.425000X1.550000*%
%ADD32R,1.650000X1.300000*%
%ADD33R,1.000000X1.900000*%
%ADD34R,1.800000X1.900000*%
%ADD35RoundRect,0.150000X-0.512500X-0.150000X0.512500X-0.150000X0.512500X0.150000X-0.512500X0.150000X0*%
%ADD36RoundRect,0.150000X0.512500X0.150000X-0.512500X0.150000X-0.512500X-0.150000X0.512500X-0.150000X0*%
%ADD37RoundRect,0.225000X0.250000X-0.225000X0.250000X0.225000X-0.250000X0.225000X-0.250000X-0.225000X0*%
%ADD38RoundRect,0.250000X0.262500X0.450000X-0.262500X0.450000X-0.262500X-0.450000X0.262500X-0.450000X0*%
%ADD39RoundRect,0.140000X0.140000X0.170000X-0.140000X0.170000X-0.140000X-0.170000X0.140000X-0.170000X0*%
%ADD40RoundRect,0.147500X0.147500X0.172500X-0.147500X0.172500X-0.147500X-0.172500X0.147500X-0.172500X0*%
G04 APERTURE END LIST*
D10*
%TO.C,R41*%
X76690000Y-92600000D03*
X77710000Y-92600000D03*
%TD*%
D11*
%TO.C,D1*%
X75850000Y-46150000D03*
X76500000Y-46150000D03*
X77150000Y-46150000D03*
X77150000Y-44250000D03*
X76500000Y-44250000D03*
X75850000Y-44250000D03*
%TD*%
D12*
%TO.C,C33*%
X81340000Y-61520500D03*
X81340000Y-60560500D03*
%TD*%
D13*
%TO.C,C63*%
X72720000Y-106800000D03*
X73680000Y-106800000D03*
%TD*%
D14*
%TO.C,C11*%
X78950000Y-73287500D03*
X78950000Y-74837500D03*
%TD*%
D15*
%TO.C,D51*%
X59015000Y-113000000D03*
X59985000Y-113000000D03*
%TD*%
D14*
%TO.C,C24*%
X65750000Y-73925000D03*
X65750000Y-75475000D03*
%TD*%
D16*
%TO.C,R21*%
X67910000Y-69000000D03*
X66890000Y-69000000D03*
%TD*%
D17*
%TO.C,C42*%
X77975000Y-94400000D03*
X76425000Y-94400000D03*
%TD*%
D10*
%TO.C,R22*%
X66890000Y-70100000D03*
X67910000Y-70100000D03*
%TD*%
D18*
%TO.C,FB31*%
X75077500Y-57140500D03*
X77202500Y-57140500D03*
%TD*%
D19*
%TO.C,C64*%
X73025000Y-108200000D03*
X74575000Y-108200000D03*
%TD*%
D20*
%TO.C,FB11*%
X77200000Y-71137500D03*
X77200000Y-73262500D03*
%TD*%
D21*
%TO.C,U21*%
X64600000Y-71500000D03*
X65400000Y-71500000D03*
D22*
X64250000Y-72450000D03*
X64750000Y-72450000D03*
X65250000Y-72450000D03*
X65750000Y-72450000D03*
X65750000Y-70550000D03*
X65250000Y-70550000D03*
X64750000Y-70550000D03*
X64250000Y-70550000D03*
%TD*%
D19*
%TO.C,C31*%
X78765000Y-58440500D03*
X80315000Y-58440500D03*
%TD*%
D17*
%TO.C,C41*%
X77975000Y-101600000D03*
X76425000Y-101600000D03*
%TD*%
D23*
%TO.C,U31*%
X75330000Y-63670500D03*
X77570000Y-61430500D03*
X76450000Y-63670500D03*
X77570000Y-62550500D03*
X76450000Y-61430500D03*
X76450000Y-62550500D03*
X77570000Y-63670500D03*
X75330000Y-62550500D03*
X75330000Y-61430500D03*
D24*
X78900000Y-64050500D03*
X78900000Y-63550500D03*
X78900000Y-63050500D03*
X78900000Y-62550500D03*
X78900000Y-62050500D03*
X78900000Y-61550500D03*
X78900000Y-61050500D03*
D25*
X77950000Y-60100500D03*
X77450000Y-60100500D03*
X76950000Y-60100500D03*
X76450000Y-60100500D03*
X75950000Y-60100500D03*
X75450000Y-60100500D03*
X74950000Y-60100500D03*
D24*
X74000000Y-61050500D03*
X74000000Y-61550500D03*
X74000000Y-62050500D03*
X74000000Y-62550500D03*
X74000000Y-63050500D03*
X74000000Y-63550500D03*
X74000000Y-64050500D03*
D25*
X74950000Y-65000500D03*
X75450000Y-65000500D03*
X75950000Y-65000500D03*
X76450000Y-65000500D03*
X76950000Y-65000500D03*
X77450000Y-65000500D03*
X77950000Y-65000500D03*
%TD*%
D26*
%TO.C,J51*%
X60000000Y-117250000D03*
X64250000Y-117250000D03*
X55750000Y-117250000D03*
%TD*%
D20*
%TO.C,FB21*%
X60700000Y-71912500D03*
X60700000Y-74037500D03*
%TD*%
D17*
%TO.C,C54*%
X72175000Y-87905000D03*
X70625000Y-87905000D03*
%TD*%
D12*
%TO.C,C32*%
X80240000Y-60820500D03*
X80240000Y-59860500D03*
%TD*%
D27*
%TO.C,R61*%
X78187500Y-104950000D03*
X80012500Y-104950000D03*
%TD*%
D28*
%TO.C,FB42*%
X82600000Y-83962500D03*
X82600000Y-81837500D03*
%TD*%
D26*
%TO.C,J61*%
X80000000Y-117250000D03*
X84250000Y-117250000D03*
X75750000Y-117250000D03*
%TD*%
D13*
%TO.C,C1*%
X72295000Y-43400000D03*
X73255000Y-43400000D03*
%TD*%
D10*
%TO.C,R1*%
X72265000Y-44600000D03*
X73285000Y-44600000D03*
%TD*%
D29*
%TO.C,U11*%
X80600000Y-75000000D03*
X82500000Y-75000000D03*
X81550000Y-73125000D03*
%TD*%
D30*
%TO.C,J1*%
X77175000Y-41160000D03*
X76525000Y-41160000D03*
X75875000Y-41160000D03*
X75225000Y-41160000D03*
X74575000Y-41160000D03*
D31*
X78362500Y-41075000D03*
D32*
X79250000Y-38500000D03*
D33*
X74325000Y-38500000D03*
D34*
X77025000Y-38500000D03*
D32*
X72500000Y-38500000D03*
D31*
X73387500Y-41075000D03*
%TD*%
D35*
%TO.C,U51*%
X71362500Y-91050000D03*
X71362500Y-92000000D03*
X71362500Y-92950000D03*
X73637500Y-92950000D03*
X73637500Y-91050000D03*
%TD*%
D14*
%TO.C,C21*%
X63750000Y-73925000D03*
X63750000Y-75475000D03*
%TD*%
D17*
%TO.C,C62*%
X71275000Y-108200000D03*
X69725000Y-108200000D03*
%TD*%
D10*
%TO.C,R31*%
X76340000Y-58740500D03*
X77360000Y-58740500D03*
%TD*%
D36*
%TO.C,U61*%
X73837500Y-104950000D03*
X73837500Y-104000000D03*
X73837500Y-103050000D03*
X71562500Y-103050000D03*
X71562500Y-104950000D03*
%TD*%
D37*
%TO.C,C22*%
X67500000Y-72975000D03*
X67500000Y-71425000D03*
%TD*%
D38*
%TO.C,R51*%
X67012500Y-91050000D03*
X65187500Y-91050000D03*
%TD*%
D39*
%TO.C,C53*%
X72505000Y-89305000D03*
X71545000Y-89305000D03*
%TD*%
D14*
%TO.C,C34*%
X81140000Y-62865500D03*
X81140000Y-64415500D03*
%TD*%
D40*
%TO.C,D61*%
X80885000Y-112900000D03*
X79915000Y-112900000D03*
%TD*%
D13*
%TO.C,C51*%
X73620000Y-89300000D03*
X74580000Y-89300000D03*
%TD*%
D17*
%TO.C,C12*%
X82325000Y-77062500D03*
X80775000Y-77062500D03*
%TD*%
D39*
%TO.C,C61*%
X71580000Y-106800000D03*
X70620000Y-106800000D03*
%TD*%
D19*
%TO.C,C23*%
X63725000Y-69050000D03*
X65275000Y-69050000D03*
%TD*%
D20*
%TO.C,FB41*%
X83000000Y-94937500D03*
X83000000Y-97062500D03*
%TD*%
D19*
%TO.C,C52*%
X73925000Y-87900000D03*
X75475000Y-87900000D03*
%TD*%
M02*
