M48
; DRILL file {KiCad 6.0.7+dfsg-3} date Mi 21 Sep 2022 21:46:14 CEST
; FORMAT={-:-/ absolute / metric / decimal}
; #@! TF.CreationDate,2022-09-21T21:46:14+02:00
; #@! TF.GenerationSoftware,Kicad,Pcbnew,6.0.7+dfsg-3
; #@! TF.FileFunction,MixedPlating,1,4
FMAT,2
METRIC
; #@! TA.AperFunction,Plated,PTH,ViaDrill
T1C0.300
; #@! TA.AperFunction,Plated,PTH,ViaDrill
T2C0.400
; #@! TA.AperFunction,Plated,PTH,ViaDrill
T3C0.600
; #@! TA.AperFunction,Plated,PTH,ComponentDrill
T4C0.800
; #@! TA.AperFunction,Plated,PTH,ComponentDrill
T5C1.000
; #@! TA.AperFunction,NonPlated,NPTH,ComponentDrill
T6C3.200
%
G90
G05
T1
X63.2Y-72.9
X66.2Y-67.9
X73.65Y-48.8
X73.65Y-49.75
X74.2Y-60.3
X74.2Y-64.8
X75.1Y-48.8
X75.1Y-49.75
X75.54Y-58.74
X75.9Y-62.0
X75.9Y-63.1
X76.14Y-67.04
X76.2Y-48.85
X76.2Y-49.75
X77.0Y-62.0
X77.0Y-63.1
X77.24Y-67.04
X78.7Y-60.3
X78.7Y-64.8
X79.99Y-63.04
X80.24Y-62.22
X82.14Y-61.54
T2
X55.0Y-45.0
X55.0Y-50.0
X55.0Y-55.0
X55.0Y-60.0
X55.0Y-65.0
X55.0Y-70.0
X55.0Y-75.0
X55.0Y-80.0
X55.0Y-85.0
X55.0Y-90.0
X55.0Y-95.0
X55.0Y-105.0
X55.0Y-110.0
X55.75Y-114.0
X57.9Y-113.0
X58.2Y-112.1
X58.2Y-113.9
X58.5Y-115.0
X58.5Y-116.0
X58.5Y-117.0
X58.5Y-118.0
X58.5Y-119.0
X59.1Y-103.9
X59.1Y-105.0
X59.1Y-106.0
X59.1Y-107.0
X59.1Y-108.0
X59.1Y-109.0
X59.1Y-110.0
X59.1Y-111.0
X59.1Y-112.0
X59.1Y-114.0
X59.8Y-103.2
X60.0Y-40.0
X60.0Y-45.0
X60.0Y-50.0
X60.0Y-55.0
X60.0Y-80.0
X60.0Y-85.0
X60.0Y-90.0
X60.0Y-95.0
X60.0Y-100.0
X60.5Y-102.5
X60.9Y-105.0
X60.9Y-106.0
X60.9Y-107.0
X60.9Y-108.0
X60.9Y-109.0
X60.9Y-110.0
X60.9Y-111.0
X60.9Y-112.0
X60.9Y-114.0
X60.95Y-113.0
X61.2Y-101.8
X61.3Y-104.1
X61.5Y-115.0
X61.5Y-116.0
X61.5Y-117.0
X61.5Y-118.0
X61.5Y-119.0
X61.9Y-101.1
X62.0Y-103.4
X62.6Y-100.4
X62.7Y-102.7
X63.3Y-99.7
X63.4Y-102.0
X64.0Y-91.1
X64.0Y-99.0
X64.1Y-90.1
X64.1Y-101.3
X64.25Y-114.0
X64.3Y-92.15
X64.3Y-93.1
X64.3Y-94.1
X64.3Y-95.1
X64.3Y-96.1
X64.3Y-97.1
X64.3Y-98.1
X64.5Y-57.25
X64.8Y-100.6
X65.0Y-50.0
X65.0Y-65.0
X65.0Y-80.0
X65.0Y-85.0
X65.0Y-89.7
X65.0Y-105.0
X65.0Y-110.0
X65.5Y-99.9
X66.1Y-89.9
X66.1Y-92.15
X66.1Y-93.1
X66.1Y-94.1
X66.1Y-95.1
X66.1Y-96.1
X66.1Y-97.1
X66.1Y-98.1
X66.1Y-99.1
X66.5Y-71.45
X67.1Y-89.7
X67.1Y-92.4
X68.1Y-57.25
X68.1Y-90.2
X68.1Y-91.9
X69.05Y-90.2
X69.05Y-91.9
X70.0Y-50.0
X70.0Y-90.2
X70.0Y-91.9
X70.0Y-115.0
X70.2Y-102.9
X70.6Y-103.9
X70.7Y-100.7
X70.7Y-101.8
X71.3Y-109.4
X71.6Y-104.0
X72.5Y-55.0
X72.5Y-70.0
X72.5Y-75.0
X72.5Y-80.0
X72.5Y-100.7
X72.5Y-101.8
X72.7Y-94.1
X72.7Y-95.2
X73.0Y-109.4
X73.1Y-85.9
X73.6Y-92.0
X74.5Y-94.1
X74.5Y-95.2
X74.575Y-43.05
X74.7Y-92.2
X74.95Y-93.2
X75.1Y-101.6
X75.1Y-104.1
X75.1Y-105.8
X75.75Y-114.0
X76.0Y-108.3
X76.0Y-111.7
X76.1Y-104.1
X76.1Y-105.8
X76.3Y-107.3
X76.3Y-112.7
X76.4Y-95.6
X76.4Y-109.4
X76.4Y-110.6
X76.5Y-47.25
X77.0Y-113.3
X77.1Y-104.1
X77.1Y-105.8
X77.1Y-106.7
X77.3Y-110.0
X77.5Y-90.0
X77.7Y-108.3
X77.7Y-111.7
X78.0Y-113.4
X78.1Y-103.6
X78.1Y-106.6
X78.3Y-110.0
X78.5Y-115.0
X78.5Y-116.0
X78.5Y-117.0
X78.5Y-118.0
X78.5Y-119.0
X78.7Y-108.3
X78.7Y-111.7
X78.95Y-75.8
X79.0Y-113.4
X79.1Y-103.8
X79.1Y-106.6
X79.1Y-114.3
X79.3Y-110.0
X79.7Y-108.3
X79.7Y-111.7
X80.0Y-45.0
X80.0Y-50.0
X80.0Y-55.0
X80.0Y-70.0
X80.0Y-80.0
X80.2Y-103.6
X80.3Y-110.0
X80.7Y-107.3
X80.7Y-108.3
X80.7Y-111.7
X80.9Y-106.3
X80.9Y-114.2
X81.04Y-59.84
X81.12Y-104.193
X81.15Y-65.7
X81.2Y-105.3
X81.3Y-110.0
X81.34Y-58.441
X81.5Y-115.0
X81.5Y-116.0
X81.5Y-117.0
X81.5Y-118.0
X81.5Y-119.0
X81.6Y-93.4
X81.7Y-108.3
X81.7Y-111.7
X81.9Y-113.8
X82.1Y-112.7
X82.3Y-110.0
X82.7Y-108.3
X82.7Y-111.7
X83.6Y-108.9
X83.6Y-111.1
X84.0Y-110.0
X84.25Y-114.0
X84.5Y-94.9
X85.0Y-45.0
X85.0Y-50.0
X85.0Y-55.0
X85.0Y-60.0
X85.0Y-65.0
X85.0Y-70.0
X85.0Y-75.0
X85.0Y-80.0
X85.0Y-85.0
X85.0Y-90.0
X85.0Y-105.0
X85.0Y-110.0
T3
X63.4Y-71.5
X64.75Y-76.6
X81.3Y-89.5
X82.9Y-87.9
T4
X71.6Y-97.0
X71.6Y-99.0
X73.6Y-97.0
X73.6Y-99.0
X75.6Y-97.0
X75.6Y-99.0
X77.6Y-97.0
X77.6Y-99.0
T5
X66.375Y-52.18
X66.375Y-54.72
X66.375Y-57.26
X66.375Y-59.8
T6
X57.0Y-39.75
X57.0Y-100.25
X83.0Y-39.75
X83.0Y-100.25
T0
M30
